<?xml version="1.0" standalone="no"?>
<!DOCTYPE svg PUBLIC "-//W3C//DTD SVG 1.1//EN" "http://www.w3.org/Graphics/SVG/1.1/DTD/svg11.dtd" >
<!--
2013-9-30: Created.
-->
<svg>
<metadata>
Created by iconfont
</metadata>
<defs>

<font id="iconfont" horiz-adv-x="1024" >
  <font-face
    font-family="iconfont"
    font-weight="500"
    font-stretch="normal"
    units-per-em="1024"
    ascent="896"
    descent="-128"
  />
    <missing-glyph />
    
    <glyph glyph-name="shuju1" unicode="&#58937;" d="M420.096 805.76l180.032 0 0-663.552-180.032 0 0 663.552ZM180.224 498.368l179.968 0 0-356.16-179.968 0 0 356.16ZM660.032 617.344l180.032 0 0-475.2-180.032 0 0 475.2ZM64 79.36l896 0 0-117.12-896 0 0 117.12ZM485.76 736.384l114.368 0 0-594.24-114.368 0 0 594.24ZM245.824 430.848l114.368 0 0-288.704-114.368 0 0 288.704ZM725.696 554.56l114.368 0 0-412.352-114.368 0 0 412.352ZM123.072 20.352l836.928 0 0-58.112-836.928 0 0 58.112Z"  horiz-adv-x="1024" />

    
    <glyph glyph-name="uninterested" unicode="&#59220;" d="M975.0784 489.8048c-2.0224 6.2976-7.168 11.1104-13.6192 12.6976l-280.2688 69.7088-152.8832 245.0176c-7.04 11.2384-25.5488 11.2384-32.5888 0l-152.8832-245.0176L62.5408 502.5024c-6.4512-1.6128-11.5968-6.4-13.6192-12.6976-2.048-6.2976-0.6912-13.2096 3.5584-18.2784l185.7792-221.1072L217.9328-37.7088c-0.4864-6.6048 2.5088-12.9792 7.8848-16.896 5.3504-3.8912 12.3136-4.7616 18.4832-2.2528L512 51.50720000000001l267.7248-108.3648c2.3296-0.9472 4.7872-1.408 7.1936-1.408 3.9936 0 7.9616 1.2544 11.264 3.6608 5.376 3.8912 8.3456 10.2656 7.8848 16.896l-20.3264 288.1024 185.7792 221.1072C975.7696 476.5952 977.1264 483.5072 975.0784 489.8048zM751.36 269.15840000000003c-3.2-3.8144-4.8128-8.7296-4.4544-13.696l18.688-265.1648-246.4 99.7376c-2.304 0.9472-4.7616 1.408-7.1936 1.408s-4.8896-0.4608-7.1936-1.408l-246.4-99.7376 18.688 265.1648c0.3584 4.9664-1.2544 9.8816-4.4544 13.696l-170.9824 203.4944 257.9456 64.1536c4.8384 1.2032 9.0368 4.2496 11.6736 8.4736L512 770.7648l140.6976-225.5104c2.6624-4.224 6.8352-7.2704 11.6736-8.4736l257.9456-64.1536L751.36 269.15840000000003z"  horiz-adv-x="1024" />

    
    <glyph glyph-name="tubiao214" unicode="&#58911;" d="M921.995015 344.309165c-27.374754 65.621634-95.313265 74.12674-114.373257 77.251044-19.250336 3.246083-35.875766 13.122485-16.31433 32.748393 13.81325 13.875674 19.001661 54.626705 15.06379 68.375483-3.938894 13.750825-9.623633 64.62284-105.874291 67.12392-69.878792 2.001683-152.75215-45.873947-161.626687-37.372935-12.564756 11.624293 16.877175 37.372935 12.751007 78.62234-4.003366 41.00073-18.874765 49.626591-38.500673 62.751123-19.625908 13.249381-73.750145 23.375481-168.375715-23.376505-101.063498-50.125989-207.252983-181.623049-244.503115-229.248981-35.498148-45.37762-155.252207-256.376083 84.250794-382.754321 239.626827-126.376191 544.128239-39.375641 638.253388 47.37521C913.997494 189.931927 948.247148 281.559066 921.995015 344.309165zM488.306255 79.183394c-166.814075-22.749188-314.000196 46.998615-328.688414 155.751604-14.875492 108.500221 108.373325 215.123608 275.250848 237.751017 166.812028 22.622292 314.000196-47.128581 328.81531-155.750581C778.370171 208.307294 655.12033 101.807733 488.306255 79.183394zM597.743869 282.560931c-15.059696 75.372164-99.499811 122.122103-188.623823 104.122307-89.188483-17.752144-149.251252-93.249157-134.188485-168.624391 14.93587-75.251408 99.499811-122.001347 188.561398-104.249203C552.743867 131.80944 612.743188 207.184674 597.743869 282.560931zM395.868619 179.433325c-31.376073-7.377368-61.876154 7.998545-68.062337 34.249655-6.126828 26.250086 14.437496 53.499991 45.937395 60.874289 31.498876 7.372251 61.997933-8.000592 68.124761-34.125829C447.995267 214.182377 427.49132 186.807623 395.868619 179.433325zM474.741681 259.808673c-12.996612-2.876652-25.495874 3.495782-27.811727 14.247152-2.31176 10.750347 6.437928 21.626567 19.56246 24.502196 13.125555 2.750779 25.562392-3.625748 27.811727-14.251246C496.617947 273.434648 487.869282 262.557405 474.741681 259.808673zM899.245827 636.185443c-29.748938 40.748984-94.810797 50.750235-119.374394 44.998979-24.624998-5.747163-37.125283-17.249677-37.125283-36.99941 0-19.624884 12.875856-30.75285 42.313694-29.250564 31.439521 1.501262 46.685468-11.499443 61.06361-29.499239 14.248176-18.001843 10.622428-44.877199 8.37207-63.127718-2.247288-18.377414 11.750165-38.871127 30.751826-38.871127 18.936166 0 31.37505 8.24722 34.250678 22.746118C938.745294 569.68577 919.247306 611.934993 899.245827 636.185443zM961.370656 759.935705c-96.688654 76.748576-200.375012 58.124534-216.251346 55.124056-15.936712-2.875628-37.625704-18.872718-37.625704-40.376483 0-22.622292 18.250518-40.750007 40.812432-40.750007 4.940759 0 68.501356 28.375595 163.93947-34.872878 95.378759-63.376393 61.376757-212.503819 61.376757-215.626076 0-22.627409 18.186047-40.876904 40.748984-40.876904 22.500513 0 35.250496 19.000638 40.688606 41.624976C1079.062655 595.433389 1047.309987 691.557151 961.370656 759.935705z"  horiz-adv-x="1063" />

    
    <glyph glyph-name="diqiu" unicode="&#58890;" d="M1023.968793 383.9028c0 282.258242-228.984556 511.073966-511.452563 511.073966-282.473122 0-511.462795-228.815722-511.462795-511.073966 0-260.737573 195.390741-475.854231 447.837044-507.156 14.231147-2.999101 31.564741-4.746785 52.209522-4.746785 5.795601 0 11.384509 0.304924 16.78207 0.857471C797.877943-124.265179 1023.968793 103.424985 1023.968793 383.9028zM950.836169 376.671601c-1.471411 25.500029-4.8399 50.460814-9.969375 74.718637 0.455339 8.661681 0.579151 16.868022 0.346877 24.49726 6.343032-29.660502 9.687986-60.432236 9.687986-91.984698C950.902679 381.486943 950.875051 379.078249 950.836169 376.671601zM74.120572 383.9028c0 30.977405 3.225236 61.200685 9.345202 90.360825 18.931886-20.247766 63.554125-19.769915 74.436224 10.483039 19.471131-11.604504 45.637286-13.717484 45.637286-36.912165 0-76.550227 2.725897-158.618759 72.279247-159.886547 1.958471-0.025581 38.788778-13.957944 56.316786-59.416164 6.060619-15.711767 30.032959 0 56.321902 0 13.124008 0 0-22.110053 0-69.921714 0-47.626454 102.680569-120.959633 102.680569-120.959633-0.475804-31.525858 0.818588-57.017702 3.442161-77.38314-23.177287 0.426689-42.709813-2.645062-58.055262-7.868674C230.627375-11.644909 74.120572 167.857045 74.120572 383.9028zM620.440877-40.783561c-2.272604 11.126653-12.215375 17.220015-30.356301 12.451742 14.474677 61.640676 21.511461 96.169728 51.728602 122.387045 43.719746 37.898564 5.206218 80.04355-28.063232 75.076769-26.222433-3.958895-9.651149 32.467234-33.055594 34.481983-23.404445 1.958471-53.969486 48.511552-87.653346 64.530291-17.855443 8.479545-35.402894 31.203539-62.940184 32.221658-24.407215 0.946492-60.07615-20.637618-60.07615-3.999824 0 53.590889-5.426213 91.832236-6.541539 107.104012-0.900446 12.269607-8.020113 4.132845 24.974087 3.339838 17.956744-0.48092 9.185577 36.067997 26.959162 37.495409 17.456382 1.381367 59.052916-16.341056 69.650557-9.277668 9.845564 6.577352 72.371338-164.12683 72.371338-28.216717 0 16.126177-8.351641 44.163828 0 59.436629 33.030013 60.352424 63.952163 109.539311 61.175104 116.734697-1.575781 4.050986-33.792323 7.39594-59.569649-1.253462-8.699541-2.904963 2.766826-16.530355-9.727892-19.440434-46.814006-10.807404-88.175196 12.622623-73.691309 34.645701 14.831785 22.570509 68.571044 9.845564 73.282016 55.124718 2.710549 25.935927 4.956549 55.974003 6.45968 78.298935 63.004648-9.852726 56.069163 81.7677-37.613081 91.574381 189.525561-2.217349 350.128371-124.61565 409.062591-294.48692-2.980683 2.718734-6.448425 4.371258-10.453365 4.774413-28.324157 70.749511-97.074267 19.547874-73.752703-42.855112-124.959457-96.057172-92.973143-163.052434-51.9179-201.416569 21.603552-20.166931 42.200242-50.496628 55.610754-72.279247-14.596442-42.561444 53.781211-25.518448 87.503954 46.709636C890.911457 113.615379 771.249286-2.633281 620.440877-40.783561z"  horiz-adv-x="1024" />

    
    <glyph glyph-name="jiantouarrow479" unicode="&#59025;" d="M818.30912 77.70112c-3.3792-3.3792-8.13056-4.98688-12.86144-4.37248l-470.92736 61.55264c-3.45088 0.45056-6.54336 2.02752-8.87808 4.37248-2.304 2.304-3.87072 5.3248-4.352 8.73472-0.96256 6.83008 2.77504 13.47584 9.10336 16.2304l189.07136 81.99168-313.76384 313.7536c-6.00064 6.00064-6.00064 15.72864 0 21.72928l108.60544 108.60544c6.01088 6.00064 15.7184 6.00064 21.72928 0l313.7536-313.76384 82.00192 189.0816c2.75456 6.32832 9.39008 10.05568 16.2304 9.09312 6.84032-0.95232 12.21632-6.3488 13.09696-13.21984l61.55264-470.92736C823.28576 85.83168 821.66784 81.07008 818.30912 77.70112z"  horiz-adv-x="1024" />

    
    <glyph glyph-name="jiantouarrow499" unicode="&#59045;" d="M512 778.77248c4.77184 0 9.2672-2.21184 12.17536-6.00064l289.4848-376.5248c2.12992-2.75456 3.18464-6.06208 3.18464-9.35936 0-3.25632-1.03424-6.5024-3.09248-9.24672-4.15744-5.51936-11.48928-7.5776-17.90976-5.03808L604.16 448.31744l0-443.72992c0-8.48896-6.87104-15.36-15.36-15.36l-153.6 0c-8.48896 0-15.36 6.87104-15.36 15.36L419.84 448.31744l-191.67232-75.71456c-6.42048-2.53952-13.75232-0.47104-17.90976 5.03808-4.15744 5.50912-4.13696 13.12768 0.09216 18.60608l289.47456 376.5248C502.7328 776.5504 507.22816 778.77248 512 778.77248z"  horiz-adv-x="1024" />

    
    <glyph glyph-name="jiantouarrow486" unicode="&#59050;" d="M171.15136 554.99776l684.02176 0-342.016-341.99552L171.15136 554.99776z"  horiz-adv-x="1024" />

    
    <glyph glyph-name="jiantouarrow492" unicode="&#59056;" d="M855.16288 213.00224 171.14112 213.00224l342.016 341.99552L855.16288 213.00224z"  horiz-adv-x="1024" />

    
    <glyph glyph-name="jiantouarrow504" unicode="&#59076;" d="M822.66112 677.44768l-61.55264-470.9376c-0.45056-3.45088-2.03776-6.53312-4.37248-8.86784-2.304-2.304-5.3248-3.87072-8.72448-4.352-6.83008-0.96256-13.47584 2.7648-16.22016 9.10336l-81.99168 189.07136L336.03584 77.70112c-6.00064-6.00064-15.72864-6.00064-21.72928 0L205.70112 186.3168c-6.00064 6.00064-6.00064 15.7184 0 21.71904l313.76384 313.76384-189.07136 81.99168c-6.33856 2.75456-10.06592 9.39008-9.10336 16.2304 0.95232 6.84032 6.3488 12.20608 13.21984 13.09696l470.92736 61.55264c4.73088 0.62464 9.48224-0.99328 12.8512-4.36224C821.66784 686.92992 823.28576 682.17856 822.66112 677.44768z"  horiz-adv-x="1024" />

    
    <glyph glyph-name="jiantouarrow505" unicode="&#59077;" d="M813.63968 371.75296l-289.46432-376.5248c-2.89792-3.77856-7.424-6.00064-12.17536-6.00064-4.78208 0-9.27744 2.22208-12.17536 6.00064l-289.4848 376.5248c-2.11968 2.7648-3.18464 6.06208-3.18464 9.3696 0 3.24608 1.024 6.5024 3.10272 9.24672 4.13696 5.50912 11.47904 7.56736 17.89952 5.03808L419.84 319.6928l-0.02048 443.71968c0.02048 8.48896 6.88128 15.36 15.38048 15.36l153.57952 0c8.4992 0 15.36-6.87104 15.38048-15.36L604.13952 319.6928l191.68256 75.7248c6.42048 2.52928 13.76256 0.47104 17.92-5.04832C817.89952 384.84992 817.87904 377.23136 813.63968 371.75296z"  horiz-adv-x="1024" />

    
    <glyph glyph-name="search" unicode="&#58961;" d="M966.4-28.799999999999955l-230.4 227.2c60.8 67.2 96 156.8 96 256 0 217.6-176 390.4-390.4 390.4-217.6 0-390.4-176-390.4-390.4 0-217.6 176-390.4 390.4-390.4 99.2 0 188.8 35.2 256 96l230.4-227.2c9.6-9.6 28.8-9.6 38.4 0C979.2-54.39999999999998 979.2-38.39999999999998 966.4-28.799999999999955zM102.4 454.4c0 185.6 150.4 339.2 339.2 339.2s339.2-150.4 339.2-339.2c0-89.6-35.2-172.8-92.8-233.6-3.2 0-3.2-3.2-6.4-3.2-3.2-3.2-3.2-3.2-3.2-6.4-60.8-57.6-144-92.8-233.6-92.8C256 115.20000000000005 102.4 268.79999999999995 102.4 454.4z"  horiz-adv-x="1024" />

    
    <glyph glyph-name="new" unicode="&#59203;" d="M768 768 256 768c-70.4 0-128-57.6-128-128l0-597.12c0-39.68 47.36-58.88 75.52-31.36l89.6 89.6C310.4 118.4 334.08 128 358.4 128L768 128c70.4 0 128 57.6 128 128L896 640C896 711.04 838.4 768 768 768zM704 288c0-17.92-14.08-32-32-32-4.48 0-8.96 0.64-12.8 2.56-6.4 1.28-12.16 3.84-16.64 8.96L384 526.08 384 288C384 270.08 369.92 256 352 256S320 270.08 320 288L320 599.68C318.08 610.56 320.64 622.08 328.96 631.04c14.08 14.08 35.84 14.08 49.92 0L640 369.92 640 608C640 625.92 654.08 640 672 640 689.92 640 704 625.92 704 608L704 288z"  horiz-adv-x="1024" />

    
    <glyph glyph-name="user" unicode="&#59473;" d="M959.68-25.024c-15.232 181.696-139.648 331.968-307.84 386.624 70.464 45.632 117.248 124.48 117.248 214.464C769.152 717.376 654.208 832 512.512 832 370.752 832 255.808 717.376 255.808 576.0640000000001c0-89.984 46.784-168.832 117.248-214.528-168.192-54.592-292.544-204.864-307.84-386.56-0.192-3.456-0.64-5.44 0-10.176C66.496-51.200000000000045 80.64-64 96.704-64c17.92 0 32.064 14.656 32.064 32 16.704 197.76 182.272 351.936 383.744 351.936 201.408 0 366.976-154.176 383.68-351.936 0-17.344 14.144-32 32.064-32 16.064 0 30.208 12.8 31.424 28.8C960.32-30.464000000000055 959.936-28.416000000000054 959.68-25.024zM320 576.0640000000001C320 682.048 406.208 768 512.512 768s192.448-85.952 192.448-191.936c0-106.048-86.144-192-192.448-192S320 470.016 320 576.0640000000001z"  horiz-adv-x="1024" />

    
    <glyph glyph-name="exit" unicode="&#58963;" d="M496.32-43.39200000000005c-55.488 0-109.376 10.848-160.064 32.352-48.992 20.672-92.928 50.304-130.688 88.064-37.76 37.76-67.392 81.76-88.128 130.72C96 258.432 85.12 312.288 85.12 367.808c0 66.432 16.288 132.384 47.072 190.816 29.76 56.448 72.992 106.016 125.056 143.328 14.464 10.368 34.56 7.008 44.896-7.424 10.336-14.432 7.04-34.496-7.424-44.8C250.72 618.1120000000001 214.208 576.3199999999999 189.12 528.672c-26.336-49.952-39.68-104.064-39.68-160.864 0-92.672 36.096-179.808 101.632-245.312 65.504-65.536 152.608-101.632 245.248-101.632 92.608 0 179.744 36.096 245.28 101.632 65.536 65.504 101.6 152.64 101.6 245.312 0 56.736-13.312 110.944-39.68 160.864-25.088 47.616-61.632 89.44-105.632 120.992-14.432 10.304-17.792 30.368-7.424 44.8 10.368 14.432 30.432 17.824 44.864 7.424 52.096-37.312 95.392-86.88 125.12-143.328 30.816-58.432 47.104-124.384 47.104-190.816 0-55.52-10.88-109.376-32.352-160.096-20.704-48.96-50.368-92.96-88.128-130.72-37.76-37.76-81.696-67.36-130.688-88.128C605.664-32.57600000000002 551.808-43.39200000000005 496.32-43.39200000000005L496.32-43.39200000000005zM505.984 402.816c-17.76 0-32.16 14.336-32.16 32.128L473.824 815.808c0 17.728 14.4 32.16 32.16 32.16s32.192-14.432 32.192-32.16l0-380.864C538.176 417.152 523.744 402.816 505.984 402.816L505.984 402.816zM505.984 402.816"  horiz-adv-x="1024" />

    
    <glyph glyph-name="zhishichanquan" unicode="&#59039;" d="M57.664 147.864c-5.944 3.295-10.247 8.714-12.119 15.244-1.868 6.539-1.08 13.411 2.219 19.359 4.478 8.072 13.01 13.092 22.263 13.092 4.294 0 8.555-1.102 12.323-3.183l402.873-223.504 436.302 142.411c17.559 36.286 22.05 72.295 13.345 107.086-4.697 18.75-12.338 32.662-16.823 39.741l-440.096-150.394-420.376 235.507c-12.241 6.862-16.619 22.402-9.764 34.636 4.491 8.025 13.003 13.012 22.211 13.012 4.333 0 8.632-1.125 12.427-3.253l400.551-224.39 438.695 149.911c19.12 31.678 22.214 65.517 9.192 100.631-6.67 17.955-16.275 32.407-22.561 40.75l-430.123-154.808-420.679 234.597c-5.934 3.309-10.228 8.733-12.082 15.269-1.858 6.541-1.057 13.411 2.257 19.347 4.481 8.048 13.003 13.055 22.233 13.055 4.314 0 8.597-1.116 12.377-3.225l400.449-223.319 430.457 154.933c23.625 38.022 29.752 75.159 18.202 110.416-3.731 11.367-8.822 20.847-13.345 27.897l-439.723-166.922-446.347 243.102 491.647 124.978 413.601-145.031 3.97-3.788c2.611-2.498 25.8-25.45 38.564-64.388 11.728-35.796 16.481-91.955-26.264-157.711 7.805-11.144 17.334-27.002 24.614-46.205 19.617-51.773 14.259-103.514-15.431-150.023 6.356-10.462 15.244-27.75 21.089-50.203 9.108-34.988 12.689-90.15-22.027-154.275l-4.842-8.916-476.985-155.705-422.272 234.264zM482.151 537.652l373.591 141.813-84.886 29.761-371.629-126.41 82.924-45.164z"  horiz-adv-x="1024" />

    
    <glyph glyph-name="compile" unicode="&#58903;" d="M582.4 748.8 140.8 307.2 96 64l243.2 44.8 441.6 441.6c25.6 25.6 25.6 70.4 0 96l-102.4 102.4C652.8 774.4 608 774.4 582.4 748.8zM716.8 563.2 659.2 512 544 627.2l51.2 51.2c19.2 19.2 51.2 19.2 76.8 0L710.4 640C736 620.8 736 582.4 716.8 563.2zM211.2 294.4l294.4 294.4 115.2-115.2-294.4-294.4-153.6-32L211.2 294.4zM928 0l-832 0C76.8 0 64 12.8 64 32l0 0C64 51.2 76.8 64 96 64l832 0c19.2 0 32-12.8 32-32l0 0C960 12.8 947.2 0 928 0z"  horiz-adv-x="1024" />

    
    <glyph glyph-name="xinnengyuan" unicode="&#58956;" d="M998.137292 58.173672l-0.542704 1.25859L855.028547 314.284679c-8.248296 14.738594-26.915705 20.034741-41.74089 11.830747-14.80404-8.205001-20.121332-26.785818-11.873036-41.524412l141.133262-252.355375c5.621367-13.132633 4.341632-19.925999 3.320664-21.445369-0.520553-0.824628-2.430589-1.432779-4.601405-1.432779L515.11054 9.357492l49.077967 57.217521c11.005112 12.828557 9.463591 32.125261-3.450551 43.064927-12.871853 10.940672-32.234003 9.399151-43.26026-3.429406l-85.08774-99.197039c-11.005112-12.828557-9.463591-32.125261 3.430413-43.064927l99.738736-84.653779c5.774411-4.905481 12.828557-7.293781 19.904855-7.293781 8.661114 0 17.277925 3.62474 23.355405 10.701037 11.005112 12.828557 9.464598 32.080959-3.429406 43.042775l-26.590485 22.574072 392.468675 0c23.160072 0 44.128183 10.89637 56.088817 29.173112C1005.517664-9.983514 1016.478474 17.127524 998.137292 58.173672L998.137292 58.173672 998.137292 58.173672 998.137292 58.173672zM691.777325 480.618943l-41.132739 15.324593c-15.845146 5.947593-33.557033-2.062074-39.504627-17.84278-5.968738-15.801851 2.084225-33.404996 17.972667-39.309294l122.747778-45.821742c3.538149-1.302892 7.185039-1.932188 10.766483-1.932188 12.41574 0 24.115594 7.554561 28.73915 19.818264l46.03822 122.118482c5.947593 15.801851-2.084225 33.383851-17.950516 39.3103-15.867297 5.925442-33.579184-2.084225-39.526778-17.863925l-23.833669-63.230561L558.826913 843.870204c-11.613263 22.703959-30.345111 35.684554-51.443109 35.684554l-0.065447 0c-22.226702-0.021144-42.044965-14.087148-54.525145-38.571256L336.317241 634.991566c-8.312736-14.694291-3.082035-33.319411 11.699854-41.588852 14.760745-8.248296 33.492593-3.03874 41.784185 11.655551L506.623615 811.658352 691.777325 480.618943 691.777325 480.618943 691.777325 480.618943 691.777325 480.618943zM311.268277 490.971602c-2.300703 8.11841-7.726736 14.543261-14.586556 18.342189-6.858813 3.798928-15.1937 4.993079-23.334261 2.691369l-126.090593-35.706705c-16.301259-4.601405-25.76485-21.488664-21.120149-37.703333 3.842224-13.435701 16.12707-22.205557 29.498332-22.205557 2.778967 0 5.622374 0.390666 8.421478 1.19415l58.715746 16.605335L5.42987 49.838784l-0.99781-3.515997c-7.619001-27.132182-3.97211-52.37648 10.288219-71.087184 13.045035-17.104743 33.709071-26.915705 56.674817-26.915705l230.887855 0c16.952706 0 30.692482 13.67433 30.692482 30.518293 0 16.866115-13.739777 30.518293-30.692482 30.518293L71.395095 9.356485c-1.693559 0-5.861002 0.281924-7.771039 2.77796-1.58381 2.084225-2.51718 6.924259-0.867924 14.522116L273.60824 399.545602l14.499965-50.705072c3.842224-13.435701 16.128077-22.205557 29.520483-22.205557 2.77796 0 5.578071 0.390666 8.400334 1.171999 16.301259 4.623557 25.76485 21.488664 21.120149 37.724477L311.268277 490.971602 311.268277 490.971602 311.268277 490.971602 311.268277 490.971602z"  horiz-adv-x="1024" />

    
    <glyph glyph-name="guanbi1" unicode="&#59046;" d="M762.88 105.984c-7.68 0-14.848 3.072-20.48 8.704L244.736 611.84c-11.264 11.264-11.264 30.208 0 41.472 11.264 11.264 30.208 11.264 41.472 0l497.152-497.152c11.264-11.264 11.264-30.208 0-41.472C777.728 109.056 770.56 105.984 762.88 105.984zM265.728 105.984c-7.68 0-14.848 3.072-20.48 8.704-11.264 11.264-11.264 30.208 0 41.472L742.4 653.312c11.264 11.264 30.208 11.264 41.472 0s11.264-30.208 0-41.472l-497.152-497.152C280.576 109.056 273.408 105.984 265.728 105.984z"  horiz-adv-x="1024" />

    
    <glyph glyph-name="xingxing" unicode="&#58946;" d="M949.12 509.408c-4.864 15.008-17.856 25.952-33.44 28.192l-256.992 37.344-114.944 232.896c-6.976 14.144-21.376 23.104-37.152 23.104-15.776 0-30.176-8.96-37.152-23.104l-114.944-232.896L97.472 537.6c-15.616-2.272-28.576-13.184-33.44-28.192s-0.8-31.456 10.496-42.464l185.984-181.28-43.904-255.968c-2.656-15.552 3.712-31.264 16.48-40.544 12.768-9.28 29.664-10.496 43.648-3.136l229.888 120.864 229.856-120.864c6.048-3.168 12.672-4.768 19.264-4.768 8.576 0 17.152 2.656 24.352 7.904 12.768 9.28 19.136 24.992 16.48 40.544l-43.904 255.968 185.984 181.28C949.92 477.952 953.984 494.4 949.12 509.408z"  horiz-adv-x="1024" />

    
    <glyph glyph-name="downarrow" unicode="&#58922;" d="M614.4 384v512h-204.8v-512h-204.8l307.2-512 307.2 512z"  horiz-adv-x="1024" />

    
    <glyph glyph-name="uparrow" unicode="&#58923;" d="M512 896l-307.2-512h614.4l-307.2 512zM409.6-128h204.8l-0 512h-204.8v-512z"  horiz-adv-x="1024" />

    
    <glyph glyph-name="display-copy" unicode="&#58889;" d="M511.01727406 228.30388405999997c-82.04855812 0-148.78687219 66.75705094-148.78687218 148.80279938 0 82.05136875 66.73831406 148.81066875 148.78687218 148.81066875 82.04293781 0 148.81966313-66.7594875 148.81966313-148.81066875C659.83693625 295.06093594000004 593.06021094 228.30388405999997 511.01727406 228.30388405999997zM511.01727406 472.7172975c-52.71494719 0-95.59093969-42.89697844-95.59093968-95.61061313 0-52.7106375 42.8759925-95.60030812 95.59093968-95.60030812 52.7097 0 95.62279313 42.88967063 95.62279313 95.60030812C606.64006625 429.82013156 563.72697406 472.7172975 511.01727406 472.7172975zM511.01727406 110.69118844000002c-178.36406906 0-338.20032563 99.82931531-417.06166969 260.5302975-3.63597188 7.39186313-3.63597188 16.05224156 0 23.44878937C172.81694844 555.35458125 332.653205 655.1861456199999 511.01727406 655.1861456199999c178.40210625 0 338.23442719-99.83156437 417.09408563-260.51624531 3.63503531-7.39654781 3.63503531-16.05692625 0-23.44878937C849.25170125 210.52031719000001 689.41357156 110.69118844000002 511.01727406 110.69118844000002zM147.67299594 382.94616188c71.76271969-135.47215031 209.77752094-219.06372469 363.34427718-219.06372469 153.56769375 0 291.61715813 83.59157531 363.38081532 219.06372468-71.76365719 135.45247594-209.81312156 219.04123969-363.38081532 219.04123969C357.48518094 601.9874024999999 219.43571563 518.3986378100001 147.67299594 382.94616188z"  horiz-adv-x="1024" />

    
    <glyph glyph-name="shezhi" unicode="&#58947;" d="M1072.147851 489.773633c-6.331285 33.456782-26.762037 55.073399-52.047135 55.073399-0.323417 0-0.651455-0.003081-0.830105-0.009241l-4.655674 0c-73.124722 0-132.618162 59.491899-132.618162 132.618162 0 23.731152 11.447443 50.336101 11.546009 50.565574 13.104573 29.498767 3.023185 65.672257-23.427755 84.127081l-1.601687 1.127342-134.400039 74.661726-1.700252 0.745401c-8.753836 3.805547-18.334698 5.735272-28.479231 5.735272-20.789593 0-41.235746-8.344174-54.683758-22.306575-14.741683-15.216028-65.622973-58.649474-104.721083-58.649474-39.450789 0-90.633935 44.286652-105.438762 59.784516-13.518857 14.247316-34.128258 22.753199-55.127302 22.753199-9.945862 0-19.354234-1.861961-27.958682-5.531982l-1.746455-0.74078-139.141957-76.431283-1.643269-1.139662c-26.537186-18.437884-36.675557-54.579032-23.584845-84.062398 0.115506-0.264895 11.579891-26.725075 11.579891-50.634877 0-73.126262-59.491899-132.618162-132.618162-132.618162l-4.581749 0c-0.318797 0.00616-0.636055 0.01078-0.951772 0.01078-25.260456 0-45.672728-21.618157-52.002472-55.0811-0.462025-2.453354-11.313456-60.622322-11.313456-106.117939 0-45.494078 10.85143-103.659965 11.314996-106.119479 6.334365-33.458322 26.758957-55.076479 52.036353-55.076479 0.320337 0 0.651455 0.00616 0.842426 0.012321l4.655674 0c73.126262 0 132.618162-59.491899 132.618162-132.616622 0-23.760413-11.444363-50.333021-11.546009-50.565574-13.093793-29.474125-3.041666-65.646075 23.395414-84.151722l1.569346-1.093459 131.838879-73.726895 1.675611-0.7377c8.750757-3.84251 18.305437-5.790715 28.397607-5.790715 21.082208 0 41.676209 8.706094 55.0888 23.290689 18.724339 20.347588 69.527086 62.362616 107.04815 62.362616 40.625872 0 92.72537-47.100385 107.759669-63.583903 13.441852-14.831008 34.176001-23.689571 55.470741-23.695731l0.00616 0c9.895039 0 19.27877 1.883523 27.893999 5.598205l1.711034 0.73924 136.659342 75.531873 1.617088 1.128882c26.492523 18.456365 36.601633 54.600594 23.538642 84.016195-0.115506 0.267974-11.595291 27.082374-11.595291 50.67646 0 73.124722 59.49344 132.616622 132.618162 132.616622l4.517066 0.00154c0.300316-0.00616 0.599092-0.009241 0.899409-0.009241 25.331299 0.00154 45.785153 21.619697 52.107197 55.054918 0.112426 0.589852 11.325776 59.507301 11.325776 106.14104C1083.464388 429.359224 1072.609877 487.32644 1072.147851 489.773633zM377.486862-49.656142l-115.32764 64.487932c5.082277 13.052211 15.437801 43.51815 15.437801 75.017486 0 109.382917-84.176364 199.816642-192.587488 208.134635-2.647404 15.427021-8.873963 54.967133-8.873963 85.667166 0 30.65691 6.223479 70.232445 8.869343 85.671786 108.415744 8.311832 192.592108 98.745557 192.592108 208.134635 0 31.416171-10.300081 61.797405-15.371577 74.854236l122.721583 67.40331c0.003081 0 0.00462-0.00154 0.007701-0.00154 4.423121-4.518606 22.121764-22.080182 46.558275-39.493911 39.929754-28.46229 77.952885-42.894416 113.014434-42.894416 34.716571 0 72.437845 14.151831 112.115025 42.06431 24.282503 17.07953 41.896442 34.302288 46.308782 38.74543 0.009241 0.00154 0.018481 0.00462 0.026182 0.00616l118.301542-65.726159c-5.077657-13.055291-15.416239-43.499669-15.416239-74.958962 0-109.389077 84.174824-199.822802 192.590568-208.134635 2.645865-15.462442 8.872423-55.107281 8.872423-85.671786 0-30.687711-6.223479-70.241685-8.869343-85.673326C890.042174 289.665916 805.86427 199.232191 805.86427 89.841574c0-31.450053 10.317022-61.851309 15.393138-74.903519l-119.783103-66.198965c-5.168521 5.490399-22.603811 23.363073-46.740005 41.288109-40.701336 30.224145-79.662378 45.549521-115.800446 45.549521-35.79155 0-74.458435-15.038919-114.927219-44.694774C400.22004-26.554885 382.666163-44.255068 377.486862-49.656142zM731.271848 384.353353c0 105.803762-86.081448 191.88059-191.888289 191.88059-105.803762 0-191.88059-86.076827-191.88059-191.88059 0-105.803762 86.076827-191.882129 191.88059-191.882129C645.19194 192.471223 731.271848 278.549591 731.271848 384.353353zM539.383558 500.096816c63.825696 0 115.751164-51.922387 115.751164-115.743463 0-63.825696-51.925468-115.751164-115.751164-115.751164-63.821076 0-115.743463 51.925468-115.743463 115.751164C423.640095 448.175969 475.562482 500.096816 539.383558 500.096816z"  horiz-adv-x="1084" />

    
    <glyph glyph-name="shangchuan1" unicode="&#58952;" d="M396.12851563 206.33085938h231.74296874v231.74296875h154.49589844l-270.3665039 270.3665039-270.36650391-270.36650391h154.49589844v-231.74296874zM241.63349609 129.08291015999998h540.73212891v-77.24794922h-540.73212891v77.24794922z"  horiz-adv-x="1024" />

    
    <glyph glyph-name="qushi" unicode="&#59415;" d="M95.978958 215.208712l63.58927 0c11.025101-0.318248 21.98471 4.615111 28.204365 13.845333l68.137867 100.767008 97.243765-201.597461c4.102435-8.588609 12.17939-14.486946 21.349237-16.666588 16.666588-4.230348 34.101679 4.487198 39.162952 19.871583l131.407865 397.040758 95.768157-289.548582c3.01466-13.59053 15.83464-23.717168 31.346939-23.717168l160.125931 0c2.758834 0 5.384637 0.323365 8.010441 0.963954 10.897188-18.205641 31.855522-30.579459 56.024991-30.579459 35.383882 0 64.034409 26.477025 64.034409 59.168588 0 32.752961-28.650527 59.229986-64.034409 59.229986-24.101931 0-45.066405-12.369725-56.024991-30.579459-2.625804 0.64059-5.255701 0.963954-8.010441 0.963954L696.097902 274.37116000000003 575.777559 638.022461c-5.127787 15.57472-23.01518 24.425296-39.938618 19.614733-5.830799-1.666966-10.897188-4.810562-14.615882-8.78406-3.137457-3.077082-5.51255-6.857175-6.990205-11.154038l-136.920416-414.029688-86.593194 179.679265c-1.539053 3.651157-3.780093 7.113001-6.922666 9.999748-0.128937 0.190335-0.318248 0.318248-0.447185 0.384763l-0.579191 0.575098c-9.04091 7.949043-22.886243 10.640338-35.127032 5.51255-6.92369-2.820232-12.245905-7.692193-15.445784-13.528108l-89.296769-131.921565-46.922682 0c-17.691941 0-31.989575-13.266142-31.989575-29.614481C63.989383 228.47485400000005 78.353532 215.208712 95.978958 215.208712L95.978958 215.208712 95.978958 215.208712 95.978958 215.208712z"  horiz-adv-x="1024" />

    
    <glyph glyph-name="liebiao" unicode="&#58883;" d="M419.037 608.047h413.124c17.673 0 32 14.327 32 32s-14.327 32-32 32H419.037c-17.673 0-32-14.327-32-32s14.327-32 32-32z m-0.009-255.217h411.608c17.673 0 32 14.327 32 32s-14.327 32-32 32H419.028c-17.673 0-32-14.327-32-32s14.327-32 32-32z m413.133-192.632H419.037c-17.673 0-32-14.327-32-32s14.327-32 32-32h413.124c17.673 0 32 14.327 32 32s-14.327 32-32 32zM192.037 640.047a64 64 0 1 1 128 0 64 64 0 1 1-128 0zM192.037 385.213a64 64 0 1 1 128 0 64 64 0 1 1-128 0zM192.037 128.379a64 64 0 1 1 128 0 64 64 0 1 1-128 0z"  horiz-adv-x="1024" />

    
    <glyph glyph-name="youjian" unicode="&#58917;" d="M868.1-36H155.9c-77.4 0-140.3 62.9-140.3 140.3V663.7c0 77.4 63 140.3 140.3 140.3H868c77.4 0 140.3-62.9 140.3-140.3v-559.4c0.1-77.4-62.9-140.3-140.2-140.3zM155.9 749.5c-47.3 0-85.8-38.5-85.8-85.8v-559.4c0-47.3 38.5-85.8 85.8-85.8H868c47.3 0 85.7 38.5 85.7 85.8V663.7c0 47.3-38.5 85.8-85.7 85.8H155.9zM511.9 338.3c-3.3 0-6.5 1-9.4 2.9l-467.6 326c-7.4 5.2-9.2 15.4-4.1 22.8 5.2 7.4 15.4 9.2 22.8 4.1l458.3-319.4L970.4 694c7.4 5.2 17.6 3.3 22.8-4.1 5.2-7.4 3.3-17.6-4.1-22.8L521.3 341.2a16.8 16.8 0 0 0-9.4-2.9z"  horiz-adv-x="1024" />

    
    <glyph glyph-name="liuyan-fill" unicode="&#58943;" d="M815.43359375 778.54277344h-607.65820313c-50.30068359 0-91.125-42.41425781-91.125-94.6678711v-504.90527343c0-52.25361328 40.83222656-94.66875 91.14082032-94.66875h200.10322265l82.3209961-85.50878907c5.45625-5.73222656 13.13525391-9.30585937 21.64921875-9.33486328 7.75283203 0.00087891 15.43271484 3.06123047 21.47695312 9.33486328l82.3209961 85.50878907h200.10322265c50.30859375 0 91.14082031 42.41425781 91.14082031 94.66875v504.90527343c-0.33222656 52.25361328-41.32353516 94.66787109-91.47304687 94.6678711zM344.33632812 399.86689453c-25.15429688 0-45.57832031 21.19921875-45.57832031 47.334375 0 26.12724609 20.42402344 47.334375 45.57832032 47.334375 25.15429688 0 45.57041016-21.20625 45.57041015-47.334375s-20.41523438-47.334375-45.57041015-47.334375zM526.62675781 399.86689453c-25.15429688 0-45.57041016 21.19921875-45.57041015 47.334375 0 26.12724609 20.41523438 47.334375 45.57041015 47.334375s45.57041016-21.20625 45.57041016-47.334375-20.40820313-47.334375-45.5625-47.334375zM709.08154297 399.86689453c-25.15429688 0-45.57041016 21.19921875-45.57041016 47.334375 0 26.12724609 20.41523438 47.334375 45.57041016 47.334375s45.57041016-21.20625 45.57041016-47.334375-20.5734375-47.334375-45.5625-47.334375z"  horiz-adv-x="1024" />

    
    <glyph glyph-name="twitter" unicode="&#59051;" d="M905.088 669.136v0.512c8.928 3.488 15.968 10.88 23.056 16.352 32 24.656 52.816 57.12 68.16 98.624l-26.128-14.304c-26.896-13.648-72.528-33.264-107.648-36.272-41.376 37.696-84.672 67.344-166.048 65.92l-25.632-3.072c-16.592-3.632-32.4-8.128-46.656-14.304-59.584-25.856-100.208-74.096-118.896-141.024-7.44-26.624-10.464-71.12-1.024-98.624-33.616 0.048-66.16 5.344-94.304 12.272-110.928 27.28-180.016 64.144-256.72 124.144-22.528 17.616-44.624 37.584-62.528 59.776-5.776 7.152-14.88 13.424-18.96 21.984a20.352 20.352 0 0 0-1.024 0.512c-8.912-16.512-17.28-34.4-22.544-54.672-20.8-79.904 12.08-147.008 47.152-190.592 10.624-13.216 27.856-21.408 38.432-33.728h1.024c-7.952-2.944-21.776 1.136-28.704 2.56-16.384 3.376-30.352 6.48-44.08 12.256l-21.52 10.224c-0.336-88.272 44.256-145.648 98.912-179.856 17.824-11.152 42.752-26.176 68.672-27.584-13.872-11.712-73.2-6.336-93.792-4.096 25.744-66.272 65.296-110.4 133.248-134.368 17.536-6.192 38.928-11.664 62.528-11.248-12.528-14.88-39.264-27.008-56.896-37.296-36.352-21.264-78.56-35.056-126.08-45.488-19.056-4.16-39.312-3.312-59.968-6.624-22.832-3.68-46.72 1.936-67.136 2.56l18.448-11.248a493.248 493.248 0 0 1 59.456-30.656c38.064-16.656 78.624-29.216 123.52-40.368 90.528-22.464 218.24-12.368 297.264 12.256 220.064 68.592 359.072 228.688 411.552 464.48 9.024 40.56 10.336 86.624 9.744 134.896l32.8 26.064c27.088 21.696 52.48 51.936 71.232 81.76v0.512c-35.712-11.2-73.312-31.76-118.912-32.24z"  horiz-adv-x="1024" />

    
    <glyph glyph-name="time1" unicode="&#59053;" d="M720 432H560V672a48 48 0 1 1-96 0v-288a48 48 0 0 1 48-48h208a48 48 0 1 1 0 96zM512 896C229.232 896 0 666.768 0 384s229.232-512 512-512 512 229.232 512 512S794.768 896 512 896z m0-928C282.256-32 96 154.256 96 384S282.256 800 512 800s416-186.24 416-416c0-229.744-186.256-416-416-416z"  horiz-adv-x="1024" />

    
    <glyph glyph-name="fanyi1" unicode="&#59581;" d="M489.29489404 246.85648300000003c0 4.15068574-0.23024355 8.14847519-0.76897881 12.22271368-4.99611269 35.51332237-36.82013555 64.34237549-70.95379306 64.34237549-75.79700947 0.07644815-151.59761719 0.07644815-227.39462667 0.07644814-4.30448115 0-8.45516777-0.46048799-12.52940448-1.22946679-34.51859648-7.14925283-59.57740635-38.89682754-59.57740724-75.71966133v-163.74658008c0-3.76754589 0.23024355-7.53329268 0.76897882-11.3008377 4.68942099-36.12850488 36.82013555-65.49629326 71.72277187-65.49629414 15.83556328 0.15379541 31.75117295 0.15379541 47.58673623 0.15379629l178.0360919-0.07285078c12.45745372 0 23.29510605 2.76742354 33.05708701 8.37871875 26.13987685 14.99013633 39.59205645 37.28152354 39.89964815 66.34172021 0.38403984 38.28524239 0.3066917 76.64333555 0.23024355 114.92767969l-0.07734727 51.12223857z m-34.78661454-159.74249414c-0.08364287-23.04597481-17.91585263-41.1264167-40.53731573-41.29460243l-174.17231104-0.08364288c-15.47310938 0-31.0352581 0-46.50836747 0.16818575-16.73945068 0.08364287-29.4370418 8.83021289-36.75358125 25.3133376-2.43824678 5.29830791-3.70009161 11.0993748-3.70009161 17.32405429 0 0-0.08364287 118.6646458 0 152.47542129 0.16818574 23.54963291 18.58859737 42.72373301 41.04277295 42.72373388l109.91897578 0.34086885 109.91897491-0.08364375c22.37413008-0.16908575 40.62275771-18.67403935 40.79094345-41.29550156 0.33637237-51.80757451 0.33637237-103.6133499 0-155.58821104zM320.07192734 487.46764922h-58.96312294c-8.09721035 0-12.00146309 4.12190508-12.00146309 12.57977021 0 5.56632598 0.21765234 11.20550273 0.72400869 16.8446795 2.16842959 20.82088301 7.15734756 40.56159903 14.96495391 58.56199541 9.83213349 23.06306338 24.14952685 43.59794062 42.65717871 61.02092724 16.41027393 15.40205771 34.4880167 27.18586758 53.79072978 35.06632559 18.00219463 7.15734756 34.05451113 10.91679873 50.53763585 11.78381074l5.78397831 0.28960313v37.09265097l-6.50618877-0.43260644c-9.25382549-0.65025878-17.4958374-1.66297237-25.15864306-3.25309395-41.28380947-8.38591435-65.01691846-17.49763653-95.89028643-46.70893125-30.94262051-29.42355059-52.70696455-66.00894609-64.49077442-108.73897558-5.27762198-18.58050263-7.95240791-38.68097432-8.09631122-59.64665977-0.07195078-10.91679873-3.75945117-14.74820068-14.16989268-14.74820069h-51.70414482l83.93019521-87.41173446 84.59214697 87.70043935zM798.5529169 362.19428408l-85.53110977-87.62758858h59.42001357c8.74836826-0.07285078 12.94042676-4.48256075 13.01327667-14.02599022 0.07195078-14.82105146-2.09647881-30.65661474-6.79489278-48.36920538-9.97693594-37.38045586-30.07470937-69.04888506-59.86431211-94.20752724-19.30181308-16.41477041-41.13990703-27.98092881-64.92428174-34.27126436-11.71545732-3.18114317-20.60772803-5.06086875-31.01816953-5.42152442l-5.8559291-0.21765234h-6.78589981l0.55852119-40.19824511 7.08539678 1.22856679c2.02452714 0.36155479 4.12010684 0.43350644 6.14463398 0.57830801l4.41060909 0.288704c24.29073106 2.67478682 40.42309307 5.64277412 64.20746778 17.86009131 30.65391651 15.76091425 57.17963232 34.77402334 77.78376211 62.61104971 29.64480117 40.05524268 45.33196464 85.60485967 46.6333831 135.49133672 0.50635635 17.4229875 2.96349082 18.72440508 18.00219463 18.7244042h47.45902236l-44.10339785 45.91117265-39.84028857 41.64536426zM905.14504795 638.93125693l-0.07644815 51.12133945c0 4.15068574-0.23024355 8.14847519-0.76897881 12.2227128-4.99611269 35.51332237-36.82013555 64.34237549-70.95379306 64.34237637-75.79700947 0.07644815-151.59761719 0.07644815-227.39462666 0.07644814-4.30448115 0-8.45516777-0.46048799-12.52940538-1.22946679-34.51859648-7.14925283-59.57830635-38.89682754-59.57830546-75.71966221v-163.7465792c0-3.76754589 0.23024355-7.53329268 0.76897793-11.30083857 4.68942099-36.12850488 36.82013555-65.49629326 71.72277276-65.49629327 15.83556328 0.15379541 31.75117295 0.15379541 47.58673534 0.15379541l178.0360919-0.07285078c12.45745372 0 23.29510605 2.76742354 33.05708701 8.37871963 26.13987685 14.99013633 39.59205645 37.28152354 39.89964815 66.34172021 0.38313984 38.28524239 0.3066917 76.64333555 0.23024443 114.92857881z m-34.86306357-108.62115556c-0.08364287-23.04597481-17.91585263-41.1264167-40.53731485-41.29460156l-174.17231192-0.08364375c-15.47310938 0-31.0352581 0-46.50836659 0.16818574-16.73945068 0.08364287-29.4370418 8.83021289-36.75358125 25.3133376-2.43824678 5.29830791-3.70009161 11.0993748-3.70009161 17.32405429 0 0-0.08364287 118.6646458 0 152.47542217 0.16818574 23.54963291 18.58859737 42.72373301 41.04277296 42.72373301l109.9189749 0.34086884 109.9189749-0.08364287c22.37413008-0.16908575 40.62275771-18.67403935 40.79094346-41.29550156 0.33637237-51.80757451 0.33637237-103.6142499 0-155.58821191z"  horiz-adv-x="1024" />

    
    <glyph glyph-name="next" unicode="&#58896;" d="M602.7 99.79999999999995c-6.1 0-12.2 2.3-16.9 7l-259 259c-9.3 9.3-9.3 24.5 0 33.8l256.9 256.9c9.3 9.3 24.5 9.3 33.8 0 9.3-9.3 9.3-24.5 0-33.8l-240-240 242.1-242.1c9.3-9.3 9.3-24.5 0-33.8-4.6-4.7-10.7-7-16.9-7zM511.3-81.79999999999995c-62.6 0-123.3 12.3-180.4 36.4-55.2 23.3-104.8 56.8-147.3 99.3-42.6 42.6-76 92.1-99.3 147.3-24.2 57.2-36.4 117.9-36.4 180.4S60.2 504.9 84.3 562c23.3 55.2 56.8 104.8 99.3 147.3 42.6 42.6 92.1 76 147.3 99.3C388.1 832.8 448.8 845 511.3 845c62.6 0 123.3-12.3 180.4-36.4 55.2-23.3 104.8-56.8 147.3-99.3 42.6-42.6 76-92.1 99.3-147.3 24.2-57.2 36.4-117.9 36.4-180.4s-12.3-123.3-36.4-180.4C915 146 881.6 96.5 839.1 53.89999999999998c-42.6-42.6-92.1-76-147.3-99.3-57.2-24.2-117.9-36.4-180.5-36.4z m0 890.4c-235.4 0-426.9-191.5-426.9-426.9 0-235.4 191.5-426.9 426.9-426.9s426.9 191.5 426.9 426.9c0.1 235.4-191.5 426.9-426.9 426.9z"  horiz-adv-x="1024" />

    
    <glyph glyph-name="prev" unicode="&#58898;" d="M419.9 99.79999999999995c6.1 0 12.2 2.3 16.9 7l259 259c9.3 9.3 9.3 24.5 0 33.8L439 656.5c-9.3 9.3-24.5 9.3-33.8 0-9.3-9.3-9.3-24.5 0-33.8l240-240L403 140.60000000000002c-9.3-9.3-9.3-24.5 0-33.8 4.7-4.7 10.8-7 16.9-7zM330.9-45.39999999999998c-55.2 23.3-104.8 56.8-147.3 99.3-42.6 42.6-76 92.1-99.3 147.3-24.2 57.2-36.4 117.9-36.4 180.4S60.2 504.9 84.3 562c23.3 55.2 56.8 104.8 99.3 147.3 42.6 42.6 92.1 76 147.3 99.3C388.1 832.8 448.8 845 511.3 845c62.6 0 123.3-12.3 180.4-36.4 55.2-23.3 104.8-56.8 147.3-99.3 42.6-42.6 76-92.1 99.3-147.3 24.2-57.2 36.4-117.9 36.4-180.4s-12.3-123.3-36.4-180.4C915 146 881.6 96.5 839.1 53.89999999999998c-42.6-42.6-92.1-76-147.3-99.3-57.2-24.2-117.9-36.4-180.4-36.4-62.6 0-123.3 12.2-180.5 36.4z m-246.5 427c0-235.4 191.5-426.9 426.9-426.9s426.9 191.5 426.9 426.9c0 235.4-191.5 426.9-426.9 426.9S84.4 617.1 84.4 381.6z"  horiz-adv-x="1024" />

    
    <glyph glyph-name="error-bold" unicode="&#59023;" d="M625.1 384l258.1-258.1-113.1-113.1-258.1 258.1-258.1-258.1-113.1 113.1 258.1 258.1-258.1 258.1 113.1 113.1 258.1-258.1 258.1 258.1 113.1-113.1-258.1-258.1z"  horiz-adv-x="1024" />

    
    <glyph glyph-name="correct" unicode="&#59034;" d="M833.7 716.3l113.1-113.1-551.5-551.5L77.1 369.9 190.3 483l205.1-205.1 438.3 438.4z"  horiz-adv-x="1024" />

    
    <glyph glyph-name="keji" unicode="&#58933;" d="M512 176.049231c-206.375385 0-425.353846 66.166154-425.353846 189.046154s218.978462 189.046154 425.353846 189.046153 425.353846-66.166154 425.353846-189.046153-218.978462-189.046154-425.353846-189.046154z m0 315.076923c-224.492308 0-362.338462-73.255385-362.338462-126.030769s137.846154-126.030769 362.338462-126.03077 362.338462 73.255385 362.338462 126.03077-137.846154 126.030769-362.338462 126.030769zM673.476923-16.935385c-40.172308 0-87.433846 20.48-137.846154 59.864616-66.166154 51.987692-132.332308 132.332308-186.683077 226.855384-103.187692 178.806154-155.175385 401.723077-48.836923 463.163077 106.338462 61.44 273.329231-95.310769 376.516923-274.116923 54.350769-94.523077 91.372308-192.196923 103.187693-275.692307 13.390769-92.947692-5.513846-159.113846-54.35077-187.47077-15.753846-7.876923-33.083077-12.603077-51.987692-12.603077zM330.830769 678.596923c-45.686154-25.993846-40.172308-182.744615 71.68-376.516923C453.710769 213.858462 514.363077 139.815385 574.227692 92.553846c50.412308-40.172308 95.310769-55.138462 118.941539-41.747692 23.630769 13.390769 32.295385 59.864615 23.630769 123.667692-11.027692 75.618462-44.898462 165.415385-95.310769 252.849231C508.849231 622.670769 376.516923 705.378462 330.830769 678.596923zM350.523077-16.935385c-18.904615 0-36.233846 4.726154-51.2 13.39077-106.338462 61.44-54.350769 284.356923 48.836923 463.163077S618.338462 794.387692 724.676923 732.947692c106.338462-61.44 54.350769-284.356923-48.836923-463.163077-54.350769-94.523077-121.304615-174.867692-186.683077-226.855384-51.2-39.384615-98.461538-59.864615-138.633846-59.864616z m322.953846 700.258462c-57.501538 0-171.716923-84.283077-270.178461-255.212308-111.852308-194.56-117.366154-350.523077-71.68-376.516923 23.630769-13.390769 68.529231 1.575385 118.941538 41.747692 59.864615 47.261538 120.516923 121.304615 171.716923 208.738462 111.064615 194.56 116.578462 350.523077 70.892308 376.516923-5.513846 3.150769-12.603077 4.726154-19.692308 4.726154zM708.923077 706.166154m-78.769231 0a78.769231 78.769231 0 1 1 157.538462 0 78.769231 78.769231 0 1 1-157.538462 0Z"  horiz-adv-x="1024" />

    
    <glyph glyph-name="shehui" unicode="&#58951;" d="M227.643077 84.676923c-7.876923 0-14.178462 5.513846-15.753846 13.390769-3.938462 29.144615-6.301538 59.076923-6.301539 89.009231 0 267.815385 179.593846 507.273846 436.381539 582.104615 8.664615 2.363077 17.329231-2.363077 19.692307-11.027692 2.363077-8.664615-2.363077-17.329231-11.027692-19.692308-243.396923-70.892308-413.538462-297.747692-413.538461-552.172307 0-28.356923 2.363077-56.713846 6.301538-84.283077 1.575385-8.664615-4.726154-16.541538-13.390769-18.116923-0.787692 0.787692-1.575385 0.787692-2.363077 0.787692zM708.923077 508.455385m-59.076923 0a59.076923 59.076923 0 1 1 118.153846 0 59.076923 59.076923 0 1 1-118.153846 0ZM863.310769 189.44c-1.575385 0-3.938462 0-5.513846 0.787692-237.883077 87.433846-396.996923 316.652308-396.996923 569.501539v18.904615c0 8.664615 7.876923 15.753846 16.541538 14.966154 8.664615 0 15.753846-7.876923 14.966154-16.541538v-17.329231c0-240.246154 151.236923-456.861538 376.516923-539.569231 7.876923-3.150769 12.603077-11.815385 9.452308-20.48-3.150769-6.301538-8.664615-10.24-14.966154-10.24zM637.243077 208.344615c-194.56 0-382.030769 70.104615-527.753846 197.71077-6.301538 5.513846-7.089231 15.753846-1.575385 22.055384 5.513846 6.301538 15.753846 7.089231 22.055385 1.575385 140.209231-122.88 320.590769-189.833846 507.273846-189.833846 84.283077 0 166.203077 13.390769 245.76 40.172307 7.876923 3.150769 17.329231-1.575385 19.692308-10.24 3.150769-7.876923-1.575385-17.329231-10.24-19.692307-81.92-27.569231-167.778462-41.747692-255.212308-41.747693zM512-41.353846c-234.732308 0-425.353846 190.621538-425.353846 425.353846s190.621538 425.353846 425.353846 425.353846 425.353846-190.621538 425.353846-425.353846-190.621538-425.353846-425.353846-425.353846z m0 787.692308c-200.073846 0-362.338462-162.264615-362.338462-362.338462s162.264615-362.338462 362.338462-362.338462 362.338462 162.264615 362.338462 362.338462-162.264615 362.338462-362.338462 362.338462zM352.098462 560.443077m-59.076924 0a59.076923 59.076923 0 1 1 118.153847 0 59.076923 59.076923 0 1 1-118.153847 0ZM515.150769 224.098462m-59.076923 0a59.076923 59.076923 0 1 1 118.153846 0 59.076923 59.076923 0 1 1-118.153846 0Z"  horiz-adv-x="1024" />

    
    <glyph glyph-name="yijianfankui" unicode="&#59553;" d="M170.666667 0v-0.021333c-0.426667-0.021333 0-0.426667 0-2.069334C170.666667-0.426667 170.24 0 170.666667 0z m682.666666 607.488V0H170.666667V725.333333h554.666666V768H170.474667C147.178667 768 128 749.824 128 727.424v-729.514667C128-24.448 147.114667-42.666667 170.666667-42.666667h682.666666c23.68 0 42.666667 18.218667 42.666667 40.661334v609.493333h-42.666667zM618.474667 376.298667a21.312 21.312 0 0 1 29.226666 7.530666l245.333334 416a21.354667 21.354667 0 0 1-36.757334 21.674667l-245.333333-416a21.333333 21.333333 0 0 1 7.530667-29.226667zM298.666667 511.978667h298.666666v42.666666H298.666667v-42.666666z m0-128h170.666666v42.666666h-170.666666v-42.666666z"  horiz-adv-x="1024" />

    
    <glyph glyph-name="close" unicode="&#58968;" d="M158.28 737.72c-195-195-195-512.39 0-707.44s512.39-195 707.44 0 195 512.39 0 707.44-512.4 195.04-707.44 0z m668.14-668.14C653-103.77999999999997 371-103.77999999999997 197.58 69.58000000000004s-173.36 455.42 0 628.84 455.47 173.37 628.83 0 173.37-455.42 0.01-628.84zM669.21 580.51L512 423.3 354.79 580.51a27.79 27.79 0 0 1-39.3-39.3L472.7 384 315.49 226.78999999999996a27.79 27.79 0 0 1 39.3-39.3L512 344.70000000000005l157.21-157.21a27.79 27.79 0 0 1 39.3 39.3L551.3 384l157.21 157.21a27.79 27.79 0 0 1-39.3 39.3z"  horiz-adv-x="1024" />

    
    <glyph glyph-name="BIgongju-" unicode="&#59115;" d="M249.39177734 320.71875c31.640625-137.109375 168.75-221.484375 311.1328125-189.84375 68.5546875 15.8203125 126.5625 63.28125 163.4765625 121.2890625 5.2734375 5.2734375 5.2734375 10.546875 5.2734375 15.8203125 0 10.546875-10.546875 21.09375-21.09375 21.09375-5.2734375 0-10.546875-5.2734375-15.8203125-10.546875v-5.2734375c-5.2734375-10.546875-21.09375-31.640625-21.09375-31.640625-26.3671875-31.640625-68.5546875-58.0078125-110.7421875-68.5546875-116.015625-26.3671875-232.03125 42.1875-258.3984375 158.203125-15.8203125 68.5546875 0 137.109375 42.1875 184.5703125-10.546875 5.2734375 0 15.8203125 10.546875 26.3671875h5.2734375l5.2734375 5.2734375c5.2734375 5.2734375 5.2734375 10.546875 5.2734375 15.8203125 0 10.546875-10.546875 21.09375-21.09375 21.09375-5.2734375 0-10.546875 0-15.8203125-5.2734375-68.5546875-58.0078125-105.46875-158.203125-84.375-258.3984375z m680.2734375 400.78125c-10.546875 21.09375-36.9140625 26.3671875-58.0078125 10.546875-21.09375-10.546875-26.3671875-36.9140625-10.546875-58.0078125l-68.5546875-147.65625c-10.546875 0-15.8203125 0-26.3671875-5.2734375 0 0-5.2734375 0-5.2734375-5.2734375l-226.7578125 52.734375c0 10.546875 0 15.8203125-5.2734375 21.09375-10.546875 21.09375-36.9140625 26.3671875-58.0078125 15.8203125-15.8203125-15.8203125-21.09375-42.1875-10.546875-58.0078125 5.2734375-5.2734375 5.2734375-10.546875 10.546875-15.8203125l-21.09375-221.484375c-5.2734375 0-10.546875-5.2734375-15.8203125-5.2734375-21.09375-10.546875-26.3671875-36.9140625-15.8203125-58.0078125 10.546875-21.09375 36.9140625-26.3671875 58.0078125-10.546875 21.09375 10.546875 26.3671875 36.9140625 10.546875 58.0078125 0 5.2734375-5.2734375 5.2734375-10.546875 10.546875l26.3671875 226.7578125c5.2734375 0 10.546875 5.2734375 10.546875 5.2734375s5.2734375 0 5.2734375 5.2734375l226.7578125-52.734375c0-5.2734375 0-15.8203125 5.2734375-21.09375 10.546875-21.09375 36.9140625-26.3671875 58.0078125-10.546875 21.09375 10.546875 26.3671875 36.9140625 10.546875 58.0078125v5.2734375L882.20427734 668.765625c10.546875 0 21.09375 0 26.3671875 5.2734375 26.3671875 0 31.640625 26.3671875 21.09375 47.4609375z m-73.828125-395.5078125c-10.546875 0-21.09375-5.2734375-21.09375-15.8203125s-15.8203125-47.4609375-15.8203125-58.0078125c-42.1875-105.46875-131.8359375-184.5703125-247.8515625-210.9375-189.84375-47.4609375-379.6875 68.5546875-421.875 258.3984375S217.75115234 679.3125 407.59490234 726.7734375c36.9140625 10.546875 73.828125 10.546875 110.7421875 10.546875 26.3671875 0 63.28125-10.546875 63.28125-10.546875h10.546875c10.546875 0 21.09375 10.546875 21.09375 21.09375S607.98552734 763.6875 602.71208984 768.9609375h-5.2734375c-10.546875 0-26.3671875 5.2734375-36.9140625 5.2734375-5.2734375 0-15.8203125 0-21.09375 5.2734375C491.96990234 784.78125 444.50896484 784.78125 397.04802734 774.234375 180.83708984 721.5 49.00115234 505.2890625 101.73552734 294.3515625c52.734375-216.2109375 263.671875-348.046875 479.8828125-295.3125 131.8359375 31.640625 237.3046875 126.5625 279.4921875 247.8515625 5.2734375 15.8203125 10.546875 36.9140625 15.8203125 52.734375v5.2734375c0 10.546875-10.546875 21.09375-21.09375 21.09375z"  horiz-adv-x="1025" />

    
    <glyph glyph-name="arrow-small" unicode="&#58914;" d="M511.998 297.12699999999995l129.978 173.746h-259.952l129.974-173.747z"  horiz-adv-x="1024" />

    
    <glyph glyph-name="suo" unicode="&#58902;" d="M829.4-128H194.6c-60.3 0-109.3 49-109.3 109.3v464c0 60.3 49 109.3 109.3 109.3h634.7c60.3 0 109.3-49 109.3-109.3v-464c0.1-60.3-49-109.3-109.2-109.3zM194.6 469.3c-13.2 0-24-10.8-24-24v-464c0-13.2 10.8-24 24-24h634.7c13.2 0 24 10.8 24 24v464c0 13.2-10.8 24-24 24H194.6zM725.3 469.3c-23.6 0-42.7 19.1-42.7 42.7V640c0 94.1-76.6 170.7-170.7 170.7S341.3 734.1 341.3 640v-128c0-23.6-19.1-42.7-42.7-42.7S256 488.4 256 512V640C256 781.2 370.8 896 512 896s256-114.8 256-256v-128c0-23.6-19.1-42.7-42.7-42.7zM512 85.3c-23.6 0-42.7 19.1-42.7 42.7V298.7c0 23.6 19.1 42.7 42.7 42.7s42.7-19.1 42.7-42.7V128c0-23.6-19.1-42.7-42.7-42.7z"  horiz-adv-x="1024" />

    
    <glyph glyph-name="duomeit" unicode="&#58992;" d="M857.856 20.352h-687.104c-55.552 0-100.736 46.080-100.736 102.656v565.568c0 56.576 45.184 102.656 100.736 102.656h687.104c55.552 0 100.736-46.080 100.736-102.656v-565.504c0.064-56.64-45.184-102.72-100.736-102.72zM170.752 727.232c-20.224 0-36.736-17.344-36.736-38.656v-565.504c0-21.312 16.512-38.656 36.736-38.656h687.104c20.224 0 36.736 17.344 36.736 38.656v565.504c0 21.312-16.512 38.656-36.736 38.656h-687.104zM397.76 521.536c0 35.2 24.96 49.6 55.424 32l200.32-115.712c30.528-17.6 30.528-46.4 0-64l-200.32-115.712c-30.464-17.6-55.424-3.264-55.424 32v231.424z"  horiz-adv-x="1024" />

    
    <glyph glyph-name="server-jiqunguanli" unicode="&#58913;" d="M184.43164062 620.68945313h53.61328126c11.953125-50.625 59.58984375-89.38476563 116.10351562-89.38476563s101.25 38.671875 116.10351563 89.38476563h369.31640624c14.85351563 0 29.79492188 11.953125 29.79492188 29.79492187 0 14.85351563-14.85351563 29.79492188-29.79492187 29.79492187H470.33984375C458.38671875 730.90429688 410.75 769.57617188 354.1484375 769.57617188s-101.25-38.671875-116.10351563-89.38476563h-53.61328124c-14.85351563 0-29.79492188-14.85351563-29.79492188-29.79492188 0-17.84179688 14.85351563-29.70703125 29.79492188-29.70703124z m169.71679688 92.28515624c32.78320313 0 59.58984375-26.80664063 59.58984375-59.58984375s-26.80664063-59.58984375-59.58984375-59.58984375-59.58984375 26.80664063-59.58984375 59.58984375 26.80664063 59.58984375 59.58984375 59.58984375z m485.41992188-556.875H470.33984375c-11.953125 50.625-59.58984375 89.38476563-116.10351563 89.38476563s-101.25-38.671875-116.10351562-89.38476563h-53.61328125c-14.85351563 0-29.79492188-14.85351563-29.79492188-29.79492187 0-17.84179688 14.85351563-29.79492188 29.79492188-29.79492188h53.61328125c11.953125-50.625 59.58984375-89.38476563 116.10351563-89.38476562s101.25 38.671875 116.10351562 89.38476562h369.31640625c14.85351563 0 29.79492188 11.953125 29.79492188 29.79492188s-14.94140625 29.79492188-29.88281251 29.79492187z m-485.41992188-86.39648437c-32.78320313 0-59.58984375 26.80664063-59.58984375 59.58984375s26.80664063 59.58984375 59.58984375 59.58984375 59.58984375-26.80664063 59.58984375-59.58984375-26.80664063-59.58984375-59.58984375-59.58984375zM184.43164062 355.61132812000005h351.38671876C547.77148438 304.98632812000005 595.40820313 266.2265625 651.921875 266.2265625s101.25 38.671875 116.10351563 89.38476563h71.45507812c14.85351563 0 29.79492188 11.953125 29.79492188 29.79492187 0 14.85351563-14.85351563 29.79492188-29.79492188 29.79492187h-71.45507813c-11.953125 50.625-59.58984375 89.38476563-116.10351562 89.38476563s-101.25-38.671875-116.10351563-89.38476563H184.43164062c-14.85351563 0-29.79492188-14.85351563-29.79492187-29.79492187 0-17.84179688 14.85351563-29.79492188 29.79492188-29.79492187z m467.57812501 92.37304688c32.78320313 0 59.58984375-26.80664063 59.58984374-59.58984375s-26.80664063-59.58984375-59.58984375-59.58984375-59.58984375 26.80664063-59.58984375 59.58984375 26.80664063 59.58984375 59.58984375 59.58984375z"  horiz-adv-x="1024" />

    
    <glyph glyph-name="yewuguanli1" unicode="&#58984;" d="M828.40625 695.1328125h-158.203125v52.734375c0 31.640625-21.09375 52.734375-52.734375 52.734375H406.53125c-31.640625 0-52.734375-26.3671875-52.734375-52.734375v-52.734375H195.59375c-58.0078125 0-105.46875-47.4609375-105.46875-105.46875v-516.796875c0-58.0078125 47.4609375-105.46875 105.46875-105.46875h632.8125c58.0078125 0 105.46875 47.4609375 105.46875 105.46875V589.6640625c0 58.0078125-47.4609375 105.46875-105.46875 105.46875z m-421.875 26.3671875c0 15.8203125 10.546875 26.3671875 26.3671875 26.3671875h158.203125c15.8203125 0 26.3671875-10.546875 26.3671875-26.3671875v-26.3671875H406.53125v26.3671875z m474.609375-648.6328125c0-31.640625-21.09375-52.734375-52.734375-52.734375H195.59375c-31.640625 0-52.734375 26.3671875-52.734375 52.734375V384h268.9453125c-5.2734375-10.546875-5.2734375-15.8203125-5.2734375-26.3671875 0-58.0078125 47.4609375-105.46875 105.46875-105.46875s105.46875 47.4609375 105.46875 105.46875c0 10.546875 0 21.09375-5.2734375 26.3671875H881.140625v-311.1328125zM459.265625 357.6328125c0 10.546875 5.2734375 15.8203125 10.546875 26.3671875h89.6484375c0-10.546875 5.2734375-15.8203125 5.2734375-26.3671875 0-26.3671875-26.3671875-52.734375-52.734375-52.734375s-52.734375 21.09375-52.734375 52.734375zM881.140625 436.734375H142.859375V589.6640625c0 31.640625 21.09375 52.734375 52.734375 52.734375h632.8125c31.640625 0 52.734375-26.3671875 52.734375-52.734375V436.734375z"  horiz-adv-x="1024" />

    
    <glyph glyph-name="quxiaozhiding-" unicode="&#59036;" d="M780.59375 364.3125L528.875 634.3125c-9.84375 11.25-23.90625 16.875-39.375 16.875-14.0625 0-29.53125-5.625-39.375-16.875l-97.03125-104.0625-94.21875 94.21875c-11.25 11.25-28.125 11.25-39.375 0-11.25-11.25-11.25-28.125 0-39.375l95.625-95.625-116.71875-125.15625c-18.28125-19.6875-12.65625-37.96875-9.84375-43.59375 2.8125-7.03125 12.65625-22.5 39.375-22.5h104.0625v-192.65625c0-30.9375 25.3125-56.25 56.25-56.25h201.09375c30.9375 0 56.25 25.3125 56.25 56.25V159l88.59375-88.59375c11.25-11.25 28.125-11.25 39.375 0 11.25 11.25 11.25 28.125 0 39.375l-127.96875 127.96875v60.46875H751.0625c26.71875 0 36.5625 15.46875 39.375 22.5 2.8125 5.625 8.4375 23.90625-9.84375 43.59375zM590.75 104.15625H388.25V296.8125c0 30.9375-25.3125 56.25-56.25 56.25h-68.90625l91.40625 98.4375L590.75 215.25v-111.09375z m54.84375 248.90625c-30.9375 0-56.25-25.3125-56.25-56.25v-5.625L391.0625 490.875l97.03125 105.46875 226.40625-243.28125h-68.90625z m0 0M219.5 693.375h541.40625c15.46875 0 28.125 12.65625 28.125 28.125s-12.65625 28.125-28.125 28.125H219.5c-15.46875 0-28.125-12.65625-28.125-28.125s12.65625-28.125 28.125-28.125z m0 0"  horiz-adv-x="1024" />

    
    <glyph glyph-name="meiti" unicode="&#58887;" d="M954.88 558.0799999999999l-451.584 224.256L64 558.0799999999999l439.296-213.504L954.88 558.0799999999999z m-450.56 179.2l357.888-177.664-357.888-168.96-348.16 168.96 348.16 177.664zM862.208 392.704h0.512l-358.4-169.472-348.16 169.472h0.512H66.56l-2.56-1.536 439.296-212.992 451.584 212.992-2.56 1.536zM862.208 241.15200000000004h0.512l-358.4-169.472-348.16 169.472h0.512H66.56l-2.56-1.536 439.296-212.992 451.584 212.992-2.56 1.536z"  horiz-adv-x="1024" />

    
    <glyph glyph-name="edit" unicode="&#58916;" d="M834.0736 670.3616l40.064-31.8976-387.584-486.6048-40.0384 31.8976zM796.16-2.5599999999999454H291.84c-56.32 0-99.84 64-99.84 145.92V568.3199999999999c0 81.92 43.52 145.92 99.84 145.92h307.2v-51.2h-307.2c-23.04 0-48.64-40.96-48.64-94.72v-427.52c0-53.76 25.6-94.72 48.64-94.72h504.32c23.04 0 48.64 40.96 48.64 94.72V384h51.2v-240.64c0-81.92-43.52-145.92-99.84-145.92z"  horiz-adv-x="1024" />

    
    <glyph glyph-name="fenpeigushu" unicode="&#59028;" d="M485.2336998 678.13962342v-320.90592362h320.90592362A320.84798813 320.84798813 0 1 0 485.2336998 678.13962342zM538.7663002 731.61428833A320.84798813 320.84798813 0 0 0 859.61428833 410.7663002H538.7663002V731.61428833z"  horiz-adv-x="1024" />

    
    <glyph glyph-name="renyuan" unicode="&#58904;" d="M512 304c-114.9 0-208 93.1-208 208s93.1 208 208 208 208-93.1 208-208-93.1-208-208-208z m0 64c79.5 0 144 64.5 144 144s-64.5 144-144 144-144-64.5-144-144 64.5-144 144-144z m-83.9 69.3c-5.9 6.6-5.4 16.7 1.2 22.6 6.6 5.9 16.7 5.4 22.6-1.2 15.7-17.4 37.9-26.7 68.1-26.7 16.4 0 37.7 10.5 52 26.6 5.9 6.6 16 7.2 22.6 1.3 6.6-5.9 7.2-16 1.3-22.6-20.2-22.7-50-37.4-76-37.4-39 0.1-69.9 13.1-91.8 37.4zM238.8 109.8c-0.5-5.6-0.8-9.4-0.8-12.4 4.5-0.8 10.5-1.3 18.1-1.3h512c2 4.4 2 10.7 1.3 17.7C730.8 225.2 625.7 304 512 304c-123.9 0-230.2-76.3-272.8-189.4-0.1-1.4-0.3-2.9-0.4-4.8zM176 128c47.7 137.8 176.7 240 336 240 146.5 0 275.6-102.4 320-240 4.7-32.1 5.5-96-64-96H256c-98.7 0-81.5 64.1-80 96z"  horiz-adv-x="1024" />

    
    <glyph glyph-name="tongzhi" unicode="&#58983;" d="M944.46933333 50.631111110000006L819.08622222 259.64088889000004V445.44c0 81.69244445-31.97155555 158.72-90.22577777 216.86044445-41.18755555 41.18755555-91.81866667 69.17688889-146.77333334 82.14755555v25.82755555c0 38.68444445-31.40266667 70.08711111-70.08711111 70.08711112s-70.08711111-31.40266667-70.08711111-70.08711112v-25.82755555c-55.06844445-12.85688889-105.69955555-40.96-146.77333334-82.14755555-58.14044445-58.14044445-90.22577778-135.168-90.22577777-216.86044445v-185.79911111L79.53066667 50.631111110000006h293.20533333c8.64711111-69.17688889 67.69777778-122.88 139.15022222-122.88s130.61688889 53.70311111 139.15022223 122.88h293.43288888zM494.25066667 770.16177778c0 9.78488889 7.96444445 17.74933333 17.74933333 17.74933333s17.74933333-7.96444445 17.74933333-17.74933333v-18.20444445c-5.91644445 0.34133333-11.83288889 0.56888889-17.74933333 0.56888889s-11.83288889-0.22755555-17.74933333-0.56888889v18.20444445zM257.25155555 245.07733333V445.44c0 140.40177778 114.23288889 254.74844445 254.74844445 254.74844445 140.40177778 0 254.74844445-114.23288889 254.74844445-254.74844445v-200.36266667L851.968 102.96888889000002H172.032l85.21955555 142.10844444zM512-19.91111110999998c-42.55288889 0-78.05155555 30.37866667-86.24355555 70.54222222h172.37333333c-8.07822222-40.16355555-43.57688889-70.54222222-86.12977778-70.54222222z"  horiz-adv-x="1024" />

    
    <glyph glyph-name="caidan" unicode="&#58979;" d="M128 768h768v-128H128zM128 128h768v-128H128zM128 448h768v-128H128z"  horiz-adv-x="1024" />

    
    <glyph glyph-name="tag" unicode="&#58935;" d="M752 800H272c-70.4 0-128-57.6-128-128v-630.4c0-17.6 4.8-35.2 14.4-49.6 27.2-44.8 86.4-59.2 131.2-32l208 126.4c9.6 6.4 22.4 6.4 33.6 0l201.6-124.8c14.4-9.6 32-14.4 49.6-14.4 52.8 0 96 43.2 96 96V672c1.6 70.4-56 128-126.4 128z m64-756.8c0-17.6-14.4-32-32-32-6.4 0-11.2 1.6-16 4.8l-201.6 124.8c-30.4 19.2-68.8 19.2-99.2 0l-208-126.4c-14.4-9.6-35.2-4.8-43.2 11.2-3.2 4.8-4.8 11.2-4.8 16V672c0 35.2 28.8 64 64 64h480c35.2 0 64-28.8 64-64v-628.8zM640 608H384c-17.6 0-32-14.4-32-32s14.4-32 32-32h256c17.6 0 32 14.4 32 32s-14.4 32-32 32z"  horiz-adv-x="1024" />

    
    <glyph glyph-name="shuju" unicode="&#59260;" d="M627.060319-104.97361h57.52709V700.394388H627.060319v-805.367998z m287.631355 0h57.526066V556.579222h-57.526066v-661.552832z m-143.816189 0h57.526066V872.97361H770.875485v-977.94722z m-287.647728 0h57.542439V872.97361h-57.542439v-977.94722z m-143.815166 0h57.52709V268.946844h-57.52709v-373.920454z m-143.815165 0h57.527089V527.816189h-57.527089v-632.789799z m-143.815166 0H109.30935V125.131678H51.78226v-230.105288z"  horiz-adv-x="1024" />

    
    <glyph glyph-name="cunchukongjian" unicode="&#58886;" d="M476.16-10.240000000000009c-46.08 0-92.16 10.24-138.24 25.6-40.96 20.48-81.92 46.08-112.64 76.8-30.72 30.72-56.32 71.68-76.8 112.64-20.48 46.08-25.6 92.16-25.6 138.24 0 46.08 10.24 92.16 25.6 138.24 20.48 40.96 46.08 81.92 76.8 112.64s71.68 56.32 112.64 76.8c46.08 20.48 92.16 30.72 138.24 30.72h25.6v-332.8h332.8v-25.6c0-46.08-10.24-92.16-25.6-138.24-20.48-40.96-46.08-81.92-76.8-112.64-30.72-30.72-71.68-56.32-112.64-76.8-46.08-15.36-92.16-25.6-143.36-25.6z m-20.48 665.6c-76.8-5.12-143.36-35.84-194.56-92.16C204.8 506.88 168.96 424.96 168.96 343.03999999999996c0-81.92 30.72-158.72 92.16-220.16s138.24-92.16 220.16-92.16 158.72 30.72 220.16 92.16c51.2 51.2 81.92 122.88 92.16 194.56H455.68V655.36zM911.36 414.72H547.84V778.24h25.6c46.08 0 92.16-10.24 133.12-25.6s76.8-40.96 107.52-71.68c30.72-30.72 56.32-66.56 71.68-107.52 15.36-40.96 25.6-87.04 25.6-133.12v-25.6z m-317.44 46.08h266.24c-5.12 71.68-35.84 133.12-87.04 184.32s-112.64 76.8-184.32 87.04v-271.36z"  horiz-adv-x="1024" />

    
    <glyph glyph-name="zongliang" unicode="&#58910;" d="M512.28967857 260.66934727h-2.24500894c-178.07990313 0-322.05015421 43.23452711-322.12257385 76.47514346L187.55999756 467.57226848c0 0.21725894 0.07241965 0.36209822 0.07241965 0.57935715 29.32995558-13.90457153 63.7292862-20.27750015 84.36888456-24.18816089 64.01896477-11.87682153 148.53268863-18.46700907 238.04336786-18.46700908h2.24500894c90.01761675 0.07241965 175.03827811 6.80744649 239.56418038 18.97394659 20.63959838 3.8382411 54.96650935 10.28358937 84.29646492 24.11574124v-0.21725892l0.36209823-130.42777778c-0.07241965-33.31303597-145.12896538-77.05450058-324.22274352-77.27175952z m0 204.15097477h-2.24500894c-178.07990313 0-322.12257385 39.46870567-322.12257385 72.63690233L187.55999756 647.60750198c-0.07241965 33.38545562 145.12896538 60.61524153 324.22274351 60.83250046h2.31742858c178.00748348 0 321.97773457-26.79526807 321.97773457-59.96346474L836.44000244 538.25384045c0-33.31303597-145.05654574-73.21625948-324.15032387-73.43351841z m-2.24500894-243.40242149h2.24500894c90.01761675 0.07241965 175.03827811 10.64568758 239.5641804 22.73976804 20.63959838 3.91066074 54.96650935 10.35600901 84.2964649 24.1881609L836.44000244 120.39249801999995c0-33.38545562-145.05654574-60.61524153-324.15032387-60.83250046h-2.31742859c-178.00748348 0-322.05015421 26.79526807-322.12257385 59.96346474L187.55999756 267.83889199c29.32995558-13.90457153 63.80170583-20.3499198 84.44130421-24.1881609 64.01896477-11.87682153 148.53268863-22.23283053 238.04336786-22.23283054z"  horiz-adv-x="1024" />

    
    <glyph glyph-name="shangchuan" unicode="&#58915;" d="M806 27H218c-57.9 0-105 47.1-105 105V292.1c0 11.6 9.4 21 21 21s21-9.4 21-21V132c0-34.7 28.3-63 63-63h588c34.7 0 63 28.3 63 63V292.1c0 11.6 9.4 21 21 21s21-9.4 21-21V132c0-57.9-47.1-105-105-105zM512 258c-11.6 0-21 9.4-21 21V720c0 11.6 9.4 21 21 21s21-9.4 21-21v-441c0-11.6-9.4-21-21-21zM719 490.6c-5.4 0-10.7 2.1-14.8 6.2L496.3 704.7c-8.2 8.2-8.2 21.5 0 29.7s21.5 8.2 29.7 0l207.9-207.9c8.2-8.2 8.2-21.5 0-29.7-4.1-4.2-9.5-6.2-14.9-6.2zM303.2 490.6c-5.4 0-10.7 2.1-14.8 6.2-8.2 8.2-8.2 21.5 0 29.7l207.9 207.9c8.2 8.2 21.5 8.2 29.7 0s8.2-21.5 0-29.7l-207.9-208c-4.1-4.1-9.5-6.1-14.9-6.1z"  horiz-adv-x="1024" />

    
    <glyph glyph-name="icon_" unicode="&#59019;" d="M512 832C262.4 832 64 633.6 64 384s198.4-448 448-448 448 198.4 448 448-198.4 448-448 448z m217.6-614.4l-51.2-51.2L512 332.79999999999995l-166.4-166.4-51.2 51.2L460.8 384 294.4 550.4l51.2 51.2L512 435.2l166.4 166.4 51.2-51.2L563.2 384l166.4-166.4z"  horiz-adv-x="1024" />

    
    <glyph glyph-name="nongye" unicode="&#58884;" d="M225.792-128h-2.56c-17.408 1.536-30.72 16.384-29.696 34.304 0.512 4.096 8.192 107.008 65.024 249.344 52.224 130.56 157.696 321.024 362.496 485.376 13.824 11.264 33.792 8.704 45.056-5.12 11.264-13.824 8.704-33.792-5.12-45.056-371.2-297.472-403.456-685.568-403.968-689.152-0.512-16.896-14.848-29.696-31.232-29.696zM688.128 577.024c-30.72 0-56.832 9.728-72.704 32.256-11.776 16.896-25.6 53.76 12.288 114.176 23.04 36.864 60.928 74.24 105.984 105.472C778.752 860.16 827.392 882.688 869.376 891.392c69.632 14.848 99.84-11.264 111.104-28.16 42.496-60.928-27.648-156.672-118.272-219.648-56.32-39.424-122.368-66.56-174.08-66.56z m219.648 254.976c-6.656 0-14.848-1.024-25.088-3.072-33.792-7.168-74.752-26.112-112.64-52.736-37.888-26.112-70.144-57.856-88.064-87.04-15.872-25.088-16.384-39.936-13.824-43.52 7.168-10.24 72.704-8.704 158.208 50.688s109.568 120.32 102.4 130.56c-2.048 2.56-8.192 5.12-20.992 5.12zM697.856 285.184c-19.968 0-40.448 1.536-60.928 4.096-54.784 7.168-105.472 23.552-142.336 45.568-61.44 36.352-66.048 75.776-63.488 95.744 2.56 20.48 17.408 56.832 86.016 75.776 41.984 11.264 94.72 13.824 149.504 6.656 109.568-14.336 215.552-67.584 205.824-141.312-7.68-59.904-86.016-86.528-174.592-86.528z m-92.16 167.936c-26.624 0-51.2-3.072-71.168-8.192-28.672-7.68-38.912-18.944-39.424-22.528-0.512-4.096 6.656-16.896 32.256-32.256 29.696-17.408 72.704-31.232 118.272-36.864 103.424-13.824 161.792 14.848 163.84 27.648 1.536 12.288-47.616 55.808-151.04 69.12-17.92 2.048-35.84 3.072-52.736 3.072z m235.52-77.312zM580.608 15.872c-31.744 0-65.024 4.096-97.792 11.776-53.76 12.288-102.4 33.28-137.728 58.368-57.856 41.984-58.368 81.408-53.76 101.376 4.608 19.968 22.528 55.296 92.672 67.584 42.496 7.68 95.744 5.12 149.504-7.68 108.032-24.576 208.384-87.552 191.488-159.744-11.264-50.688-72.192-71.68-144.384-71.68z m-145.408 179.2c-14.336 0-28.16-1.024-39.936-3.072-29.184-5.12-40.96-14.848-41.472-18.944-1.024-4.096 5.12-17.408 29.184-35.328 27.648-19.968 69.632-37.888 114.176-48.128 101.376-23.552 162.816 0 165.376 11.776 2.56 12.288-41.984 59.904-143.36 82.944-28.672 7.168-57.856 10.752-83.968 10.752z m258.56-100.352zM445.952 420.352c-21.504 0-56.832 10.24-87.04 68.096-19.968 38.4-33.28 89.6-37.888 144.896-4.608 54.784 0.512 108.032 14.336 148.992C357.376 849.92 394.752 862.72 415.232 864.256c20.48 1.536 59.392-5.12 92.16-68.096 19.968-38.4 33.28-89.6 37.888-144.896 8.704-110.08-20.992-224.768-94.72-230.912h-4.608z m-25.088 379.904s-0.512 0 0 0c-4.096-0.512-15.36-10.24-25.088-38.4-10.752-32.768-14.848-77.824-11.264-123.392 3.584-46.08 14.848-89.6 30.72-120.32 13.824-26.624 26.624-34.304 30.72-33.792 12.288 1.024 44.544 58.368 35.84 161.792-3.584 46.08-14.848 89.6-30.72 120.32-13.824 26.112-26.112 33.792-30.208 33.792zM298.496 208.384c-55.808 0-127.488 48.64-181.76 111.104-36.352 41.472-63.488 87.04-76.8 128-22.016 67.584 0.512 100.352 15.872 113.664 55.808 48.64 158.72-10.24 231.424-93.696C359.936 384 404.48 273.92 348.672 225.28c-14.848-11.264-31.744-16.896-50.176-16.896z m28.672 41.984zM104.96 515.584c-3.584 0-6.144-0.512-7.68-2.048-3.072-2.56-6.144-17.408 3.072-45.568 10.752-32.768 34.304-71.168 64.512-105.984 68.608-78.336 131.584-95.744 140.8-87.552 9.216 8.192 1.024 73.216-67.584 151.552-57.856 67.072-112.64 89.6-133.12 89.6z"  horiz-adv-x="1024" />

    
    <glyph glyph-name="jingji" unicode="&#58939;" d="M962.92180423 35.449632990000055c0-2.43741469 0-4.87483051-1.21870791-6.09353841 0-1.21870791 0-1.21870791-1.21870791-2.43741469 0-1.21870791-1.21870791-2.43741469-1.21870678-3.65612259 0-1.21870791-1.21870791-1.21870791-1.2187079-2.43741583s-1.21870791-2.43741469-1.21870792-2.43741468c0-1.21870791-1.21870791-1.21870791-2.43741468-2.43741582l-2.43741582-2.43741468-1.21870678-1.21870792-93.84048412-73.12245418c-4.87483051-3.65612259-10.96836779-6.09353842-18.28061298-6.09353842-8.5309531 0-17.06190621 3.65612259-23.15544462 10.96836892-9.74966101 12.1870757-7.31224519 30.46768981 4.8748305 40.21734969l28.030274 21.93673671H163.44963299c-15.84319829 0-29.2489819 13.40578361-29.2489819 29.2489819V722.80070713L112.26391438 694.770432c-9.74966101-12.1870757-28.03027399-14.62449038-40.21734969-4.87483051-12.1870757 9.74966101-14.62449038 28.03027399-4.8748305 40.21735083l73.12245418 93.84048299 1.21870792 1.21870791 3.65612259 3.65612259c4.87483051 3.65612259 10.96836779 6.09353842 18.28061411 6.09353842s13.40578361-2.43741469 18.28061298-6.09353842l3.6561226-3.65612259 1.21870791-1.21870791 73.12245533-93.84048299c9.74966101-12.1870757 7.31224519-30.46768981-4.87483051-40.21735083-4.87483051-3.65612259-10.96836779-6.09353842-18.28061412-6.09353728-8.5309531 0-17.06190621 3.65612259-23.15544348 10.96836779L192.6986149 722.80070713v-658.10209223h658.10209223l-28.03027513 21.93673557c-12.1870757 9.74966101-14.62449038 28.03027399-4.87483051 40.21735083 9.74966101 12.1870757 28.03027399 14.62449038 40.21735083 4.87483051l93.84048299-73.12245533 1.21870791-1.21870791 3.65612259-3.6561226 1.21870792-1.21870677c1.21870791-1.21870791 1.21870791-2.43741469 2.43741468-3.65612259 0 0 0-1.21870791 1.21870791-1.21870792 1.21870791-1.21870791 1.21870791-2.43741469 1.21870791-4.8748305v-7.3122452zM778.89695971 453.46633159c-4.87483051 0-8.5309531 0-13.4057836 1.21870791L685.05647559 320.62720569c10.96836779-13.40578361 17.06190621-30.46768981 17.0619062-48.74830279 0-43.87347229-35.34252032-79.21599261-79.2159926-79.21599261s-79.21599261 35.34252032-79.2159926 79.21599261c0 10.96836779 2.43741469 21.93673671 7.31224632 31.68639659l-57.27925702 57.27925702c-9.74966101-4.87483051-20.7180288-7.31224519-31.68639659-7.31224632-4.87483051 0-8.5309531 0-13.40578361 1.21870791L368.19250631 223.13060011000005c10.96836779-13.40578361 17.06190621-30.46768981 17.06190507-48.74830393 0-43.87347229-35.34252032-79.21599261-79.21599261-79.21599261s-79.21599261 35.34252032-79.21599146 79.21599261 35.34252032 79.21599261 79.21599146 79.2159926c4.87483051 0 8.5309531 0 13.40578361-1.21870677l80.43470052 134.05783268c-10.96836779 13.40578361-17.06190621 30.46768981-17.06190621 48.74830392 0 43.87347229 35.34252032 79.21599261 79.21599261 79.21599261s79.21599261-35.34252032 79.2159926-79.21599261c0-10.96836779-2.43741469-21.93673671-7.31224519-31.68639772l57.2792559-57.2792559c9.74966101 4.87483051 20.7180288 7.31224519 31.68639658 7.3122452 4.87483051 0 8.5309531 0 13.40578361-1.21870678l80.43470051 134.05783268c-10.96836779 13.40578361-17.06190621 30.46768981-17.0619062 48.74830393 0 43.87347229 35.34252032 79.21599261 79.2159926 79.2159926s79.21599261-35.34252032 79.21599261-79.2159926-35.34252032-81.65340729-79.21599261-81.65340843zM306.03841877 196.31903289000002c-12.1870757 0-21.93673671-9.74966101-21.93673557-21.93673671s9.74966101-21.93673671 21.93673557-21.93673557 21.93673671 9.74966101 21.93673672 21.93673557-9.74966101 21.93673671-21.93673672 21.93673671z m155.99457053 259.58471452c-12.1870757 0-21.93673671-9.74966101-21.93673671-21.93673671s9.74966101-21.93673671 21.93673671-21.93673671c6.09353842 0 10.96836779 2.43741469 15.84319829 6.09353842 3.65612259 3.65612259 6.09353842 9.74966101 6.09353842 15.84319829 0 12.1870757-9.74966101 21.93673671-21.93673671 21.93673671z m140.15137109-182.8061366c0-12.1870757 9.74966101-21.93673671 21.93673671-21.93673671s21.93673671 9.74966101 21.93673671 21.93673671-9.74966101 21.93673671-21.93673671 21.93673557c-12.1870757-1.21870791-21.93673671-10.96836779-21.93673671-21.93673557z m176.71259932 280.30274218c-12.1870757 0-21.93673671-9.74966101-21.9367367-21.93673557s9.74966101-21.93673671 21.9367367-21.93673671 21.93673671 9.74966101 21.93673672 21.93673671-9.74966101 21.93673671-21.93673672 21.93673557z"  horiz-adv-x="1024" />

    
    <glyph glyph-name="Group-" unicode="&#59016;" d="M480 672a32 32 0 0 0 64 0v-448a32 32 0 0 0-64 0zM800 64v160a32 32 0 0 0 64 0v-192a32 32 0 0 0-32-32H192a32 32 0 0 0-32 32v192a32 32 0 0 0 64 0v-160zM648.32 373.76a32 32 0 1 0 47.36-43.52l-176-192a32 32 0 0 0-47.36 0l-176 192a32 32 0 1 0 47.36 43.52l152.32-166.4z"  horiz-adv-x="1024" />

    
    <glyph glyph-name="fanyipingtai" unicode="&#59007;" d="M174.5 721.5h632.8125a42.1875 42.1875 0 0 0 42.1875-42.1875v-632.8125a42.1875 42.1875 0 0 0-42.1875-42.1875H174.5a42.1875 42.1875 0 0 0-42.1875 42.1875V679.3125a42.1875 42.1875 0 0 0 42.1875 42.1875z m281.475-126.5625L301.0625 173.0625h65.3484375l37.7578125 108.7171875h172.9265625L614.853125 173.0625H680.75L525.8375 594.9375H455.975zM427.625 341.8125l62.4796875 168.75h2.109375L554.1875 341.8125H427.625z"  horiz-adv-x="1024" />

    
    <glyph glyph-name="wenhua" unicode="&#58901;" d="M832-128h-640c-70.656 0-128 57.344-128 128V768c0 70.656 57.344 128 128 128h640c70.656 0 128-57.344 128-128v-768c0-70.656-57.344-128-128-128zM192 832C156.672 832 128 803.328 128 768v-768c0-35.328 28.672-64 64-64h640c35.328 0 64 28.672 64 64V768c0 35.328-28.672 64-64 64h-640zM256-96.25599999999997c-17.92 0-32.256 14.336-32.256 32.256v896c0 17.92 14.336 31.744 32.256 31.744s32.256-14.336 32.256-31.744v-896c-0.512-17.92-14.336-32.256-32.256-32.256zM544.256 512c-10.24 0-20.48 2.56-30.208 7.68-20.992 11.264-33.792 32.768-33.792 56.32v256c0 17.92 14.336 31.744 32.256 31.744s32.256-14.336 32.256-31.744v-256l78.336 52.224c10.752 7.168 24.576 7.168 35.328 0l78.336-52.224v256c0 17.92 14.336 31.744 32.256 31.744s32.256-14.336 32.256-31.744v-256c0-35.328-28.672-64-64-64-12.8 0-25.088 3.584-35.328 10.752L640 563.2l-60.416-40.448c-10.752-7.168-23.04-10.752-35.328-10.752zM768 64h-256c-17.92 0-32.256 14.336-32.256 32.256s14.336 32.256 32.256 32.256h256c17.92 0 32.256-14.336 32.256-32.256s-14.336-32.256-32.256-32.256z"  horiz-adv-x="1024" />

    
    <glyph glyph-name="suanfa1" unicode="&#59248;" d="M373.33333344 576C399.99999969 528 447.99999969 490.66666688 512 490.66666688c90.66666656 0 160.00000031 69.33333375 160.00000031 159.99999937s-69.33333375 160.00000031-160.00000031 160.00000031-160.00000031-69.33333375-160.00000031-160.00000031v-21.33333281c-85.33333312-48-144-133.33333312-159.99999938-234.66666657L245.33333375 384c10.66666687 79.99999969 58.66666688 149.33333344 127.99999969 192zM512 757.33333312c58.66666688 0 106.66666688-48 106.66666688-106.66666687s-48-106.66666688-106.66666688-106.66666594-106.66666688 48-106.66666688 106.66666594 48 106.66666688 106.66666688 106.66666687zM512 79.99999968999998c-26.66666625 0-58.66666688 5.33333344-85.33333312 10.66666687l-32.00000063 16.00000032c5.33333344 21.33333375 10.66666687 42.66666656 10.66666688 63.99999937 0 90.66666656-69.33333375 160.00000031-159.99999938 160.00000031s-160.00000031-69.33333375-160.00000031-160.00000031 69.33333375-160.00000031 160.00000031-159.99999937c48 0 90.66666656 21.33333375 117.33333281 53.33333343 16.00000031-5.33333344 31.99999969-16.00000031 48-21.33333375 31.99999969-10.66666687 64.00000031-16.00000031 101.33333344-16.00000031 31.99999969 0 58.66666688 5.33333344 90.66666656 10.66666688l-16.00000031 53.33333343c-26.66666625-5.33333344-53.33333344-10.66666687-74.66666625-10.66666687zM245.33333375 64.00000031000002c-58.66666688 0-106.66666688 48-106.66666688 106.66666594s48 106.66666688 106.66666688 106.66666687 106.66666688-48 106.66666594-106.66666687-48-106.66666688-106.66666594-106.66666594zM826.66666625 319.99999969v26.66666719c0 85.33333312-37.33333312 170.66666625-96 229.33333312l-37.33333312-37.33333312c53.33333344-48 85.33333312-117.33333375 85.33333312-192v-16.00000032c-85.33333312 0-154.66666688-74.66666625-154.66666594-160.00000031 0-90.66666656 69.33333375-160.00000031 159.99999938-159.99999937s160.00000031 69.33333375 160.00000031 159.99999937c-5.33333344 69.33333375-53.33333344 127.99999969-117.33333375 149.33333344zM778.66666625 64.00000031000002c-58.66666688 0-106.66666688 48-106.66666594 106.66666594s48 106.66666688 106.66666594 106.66666687 106.66666688-48 106.66666688-106.66666687-48-106.66666688-106.66666688-106.66666594z"  horiz-adv-x="1024" />

    
    <glyph glyph-name="time" unicode="&#58888;" d="M511.5 849c-256.817 0-465-208.206-465-465 0-256.84 208.183-465 465-465s465 208.16 465 465c0 256.795-208.183 465-465 465z m0-860.25c-218.286 0-395.25 176.964-395.25 395.25 0 218.287 176.964 395.25 395.25 395.25 218.287 0 395.25-176.963 395.25-395.25 0-218.286-176.963-395.25-395.25-395.25zM777.672 383.95500000000004H545.898V651.33c0 19.299-15.621 34.875-34.875 34.875-19.276 0-34.875-15.576-34.875-34.875v-302.25c0-19.254 15.599-34.875 34.875-34.875 1.854 0 3.672 0.147 5.446 0.427 1.776-0.279 3.597-0.427 5.452-0.427h255.75c19.254 0 34.875 15.621 34.875 34.875 0.001 19.299-15.62 34.875-34.874 34.875z"  horiz-adv-x="1024" />

    
    <glyph glyph-name="caijicanshu" unicode="&#58906;" d="M783.36 733.184H262.82666667c-7.50933333 0-13.65333333 6.144-13.65333334 13.65333333v40.96c0 7.50933333 6.144 13.65333333 13.65333334 13.65333334h520.53333333c7.50933333 0 13.65333333-6.144 13.65333333-13.65333334v-40.96c0-7.50933333-6.144-13.65333333-13.65333333-13.65333333zM825.00266667 604.9564444499999H221.184c-7.50933333 0-13.65333333 6.144-13.65333333 13.65333333v40.96c0 7.50933333 6.144 13.65333333 13.65333333 13.65333333h603.81866667c7.50933333 0 13.65333333-6.144 13.65333333-13.65333333v-40.96c0-7.50933333-6.144-13.65333333-13.65333333-13.65333333zM835.01511111-19.68355555000005H211.17155555c-42.43911111 0-76.8 34.36088889-76.8 76.8V452.72177778c0 42.43911111 34.36088889 76.8 76.8 76.8h623.84355556c42.43911111 0 76.8-34.36088889 76.8-76.8v-395.71911111c0-42.32533333-34.36088889-76.68622222-76.8-76.68622222z m-614.74133333 45.5111111h605.63911111c22.30044445 0 40.39111111 18.09066667 40.39111111 40.39111112V443.61955555c0 22.30044445-18.09066667 40.39111111-40.39111111 40.39111112H220.27377778c-22.30044445 0-40.39111111-18.09066667-40.39111111-40.39111112v-377.51466666c0-22.30044445 18.09066667-40.27733333 40.39111111-40.27733334zM255.77244445 134.03022222000004c-5.80266667 0-11.60533333 2.27555555-15.81511112 6.82666667-8.192 8.76088889-7.85066667 22.528 0.91022222 30.72l153.1448889 144.27022222c10.01244445 9.44355555 22.98311111 14.44977778 36.75022222 14.22222222 13.65333333-0.22755555 26.51022222-5.68888889 36.18133333-15.47377778l90.79466667-91.5911111c3.29955555-3.41333333 8.64711111-3.52711111 12.17422222-0.22755556l205.93777778 191.14666666c8.76088889 8.192 22.528 7.62311111 30.72-1.13777777s7.62311111-22.528-1.13777778-30.72l-205.93777778-191.14666667c-20.82133333-19.34222222-52.67911111-18.65955555-72.59022222 1.47911111l-90.79466667 91.59111111c-3.41333333 3.41333333-8.76088889 3.52711111-12.17422222 0.22755556L270.67733333 139.94666667c-4.20977778-3.98222222-9.55733333-5.91644445-14.90488888-5.91644445z"  horiz-adv-x="1024" />

    
    <glyph glyph-name="xiazai2" unicode="&#58880;" d="M776.68594489 478.53074738L625.4370453 478.53074738 625.4370453 705.40483869 398.5629547 705.40483869l-1e-8-226.87409059L247.31331352 478.53074738l264.6859449-264.6859449L776.68594489 478.53074738zM247.31331352 138.22035231999996l0-75.62445017L776.68594489 62.59590287000003 776.68594489 138.22035231999996 247.31331352 138.22035231999996z"  horiz-adv-x="1024" />

    
    <glyph glyph-name="xinjian" unicode="&#58957;" d="M914.181742 644.378973L672.174208 885.704795A34.085568 34.085568 0 0 1 645.587465 895.930465H134.303944a34.085568 34.085568 0 0 1-34.085569-34.085568v-954.395906a34.085568 34.085568 0 0 1 34.085569-34.085568h755.336188a34.085568 34.085568 0 0 1 34.085569 34.085568V623.245921a34.085568 34.085568 0 0 1-9.543959 21.133052z m-92.712746-3.408557H666.720517V795.037184zM168.389512-58.465441V827.759329h430.159869v-220.874481a34.085568 34.085568 0 0 1 34.085568-34.085568h222.919615V-58.465441zM713.758601 350.561376H548.10274V516.217237a34.085568 34.085568 0 0 1-68.171136 0V350.561376H304.731784a34.085568 34.085568 0 0 1-34.085568-34.085568 33.403857 33.403857 0 0 1 4.771979-16.361073 34.085568 34.085568 0 0 1 31.358723-21.133052h170.427841v-170.42784a34.085568 34.085568 0 1 1 68.171136 0V277.61826h170.42784a34.085568 34.085568 0 0 1 34.085568 34.085568 33.403857 33.403857 0 0 1-4.771979 16.361073A34.085568 34.085568 0 0 1 713.758601 350.561376z"  horiz-adv-x="1024" />

    
    <glyph glyph-name="xingxing1" unicode="&#58950;" d="M733.653-22.642c-12.368 0-25.232 2.968-36.116 8.905l-184.043 96.474-183.548-96.969c-11.379-5.937-23.747-8.905-36.611-8.905-15.337 0-30.674 4.453-43.042 12.863-23.747 16.326-36.116 44.032-31.169 71.737l35.621 209.274L99.894 422.128c-20.284 19.79-27.211 47.99-17.811 74.211 9.4 26.221 32.158 44.526 60.358 48.484L353.2 575.497l91.527 186.022C457.095 786.75 484.305 803.076 513 803.076c29.19 0 55.905-16.326 68.274-41.558L672.8 575.497l210.758-30.674c28.2-3.958 51.453-22.758 60.358-48.484 9.4-26.221 2.474-54.916-17.811-74.705L771.253 270.738l35.621-209.274c4.947-27.705-7.421-55.411-31.169-71.737-11.873-7.916-26.715-12.369-42.052-12.369zM513.495 152.496c8.905 0 17.316-1.979 25.232-5.937l190.969-100.432c0.989-0.495 2.474-0.99 3.958-0.99 1.979 0 3.463 0.495 4.947 1.484s2.474 2.968 2.474 4.453l-37.105 217.19c-2.968 16.821 2.969 34.137 14.842 46.011l160.295 156.337c0.989 0.989 1.979 2.474 1.484 4.453-0.495 1.484-2.968 3.463-5.937 3.958L655.98 510.686c-17.316 2.474-32.653 13.358-40.074 29.19l-94.99 192.948c-0.989 1.979-3.958 3.463-6.926 3.463s-5.937-1.484-6.926-3.958l-94.99-192.948c-7.916-15.832-22.758-26.221-40.074-29.19l-219.664-31.663c-2.968-0.495-5.442-2.474-5.937-3.958-0.495-1.484 0-2.968 1.484-4.453l160.295-156.832c12.368-11.874 17.811-29.19 14.842-46.011l-37.105-216.695c-0.495-1.484 0.495-3.463 2.474-4.947 1.484-0.989 2.968-1.484 4.947-1.484 1.484 0 2.968 0.495 4.453 0.989l190.474 100.432c7.916 4.453 16.326 6.927 25.232 6.927z"  horiz-adv-x="1024" />

    
    <glyph glyph-name="shanchu" unicode="&#58918;" d="M845.12256 608.44544v-572.62592c0-15.77984 10.89024-86.44096-15.2576-86.44096H247.7568c-11.74528 0-36.38784-4.56704-37.92384 12.53888-0.90112 10.0352 0 20.57216 0 30.63296V608.44032c0 33.01888-51.2 33.01888-51.2 0v-572.62592c0-44.94848-10.20416-99.40992 31.56992-128.94208 15.00672-10.60352 35.80928-8.69888 53.31968-8.69888h531.38432c48.04096 0 121.41568-6.58432 121.41568 63.7952V608.44032c0 33.024-51.2 33.024-51.2 0.00512zM501.86752 475.53024v-361.33888c0-33.01376 51.22048-33.01376 51.22048 0V475.53024c0 33.01888-51.22048 33.01888-51.22048 0zM325.35552 475.53024v-361.33888c0-33.01376 51.2-33.01376 51.2 0V475.53024c0 33.01888-51.2 33.01888-51.2 0zM676.00384 475.53024v-361.33888c0-33.01376 51.2-33.01376 51.2 0V475.53024c0 33.01888-51.2 33.01888-51.2 0zM102.5024 678.4768h849.95584c33.01376 0 33.01376 51.2 0 51.2H102.5024c-33.01888 0-33.01888-51.2 0-51.2zM338.7648 721.17248V801.46944c0 18.37056 1.00864 30.9248 21.6832 30.9248h334.0544c20.67456 0 21.6832-12.55424 21.6832-30.9248v-80.29696c0-33.01888 51.2-33.01888 51.2 0 0 54.73792 18.51392 162.42176-65.26464 162.42176H352.82432c-83.77344 0-65.25952-107.68384-65.25952-162.42176 0-33.01888 51.2-33.01888 51.2 0z"  horiz-adv-x="1024" />

    
    <glyph glyph-name="banshou" unicode="&#59073;" d="M602.9 334.1L270.5 1.6c-12-12-26.7-18-43.9-18-16.9 0-31.7 6-44.4 18l-51.7 52.7c-12.4 11.7-18.6 26.3-18.6 43.9 0 17.2 6.2 32 18.6 44.4l332 331.9c12.7-31.9 31.3-60.1 55.8-84.6 24.6-24.6 52.8-43.2 84.6-55.8zM279.7 107.4c6.2 6.2 9.2 13.4 9.2 21.9 0 8.4-3.1 15.8-9.2 21.9-6.2 6.2-13.5 9.2-21.9 9.2-8.4 0-15.8-3.1-21.9-9.2-6.2-6.2-9.2-13.5-9.2-21.9s3.1-15.8 9.2-21.9c6.2-6.2 13.4-9.2 21.9-9.2 8.4 0 15.7 3 21.9 9.2zM912 546.1c0-12.7-3.7-29.9-11.2-51.7-15.3-43.6-42-78.9-80.2-106-38.2-27.2-80.2-40.7-126-40.7-60.1 0-111.5 21.3-154.3 64.1s-64.1 94.1-64.1 154.3c0 60.1 21.3 111.5 64.1 154.3s94.1 64.1 154.3 64.1c18.9 0 38.5-2.7 59.3-8 20.6-5.3 38.1-12.9 52.4-22.7 5.2-3.6 7.8-8.1 7.8-13.6s-2.6-10-7.8-13.6l-142.8-82.4V535l94.1-52.2c1.6 1 14.5 8.8 38.5 23.7 24.1 14.8 46 28 66 39.5s31.5 17.3 34.3 17.3c4.9 0 8.7-1.6 11.5-4.9 2.7-3.4 4.1-7.4 4.1-12.3z"  horiz-adv-x="1024" />

    
    <glyph glyph-name="location" unicode="&#58975;" d="M511.449009 682.141538a179.278769 179.278769 0 1 0 0-358.557538 179.278769 179.278769 0 0 0 0 358.557538z m393.294769-179.357538A393.294769 393.294769 0 1 1 182.036086 287.90153799999996l294.203077-392.270769a39.384615 39.384615 0 0 1 70.498462 0l294.754461 392.270769c39.699692 61.912615 63.251692 135.483077 63.251692 214.882462z"  horiz-adv-x="1024" />

    
    <glyph glyph-name="guanbi" unicode="&#59027;" d="M589.703529 394.32605l408.567395 408.567395c20.652101 20.652101 20.652101 54.555966 0 75.208068l-2.237311 2.237311c-20.652101 20.652101-54.555966 20.652101-75.208067 0L512.258151 471.255126l-408.567395 409.255798c-20.652101 20.652101-54.555966 20.652101-75.208067 0l-2.237311-2.237311c-21.168403-20.652101-21.168403-54.555966 0-75.208067L434.812773 394.32605l-408.567395-408.567395c-20.652101-20.652101-20.652101-54.555966 0-75.208067l2.237311-2.237311c20.652101-20.652101 54.555966-20.652101 75.208067 0L512.258151 316.880672l408.567395-408.567395c20.652101-20.652101 54.555966-20.652101 75.208067 0l2.237311 2.237311c20.652101 20.652101 20.652101 54.555966 0 75.208067L589.703529 394.32605z"  horiz-adv-x="1024" />

    
    <glyph glyph-name="kongjian" unicode="&#58900;" d="M798.875 548.25L549.125 412.6875C526.0625 400.3125 512 375.5625 512 348V85.875c0-28.125 27.5625-46.6875 50.625-33.75l249.75 135.5625c22.5 12.375 37.125 37.125 37.125 64.6875v261.5625c0 28.6875-27.5625 46.6875-50.625 34.3125z m-380.25-135L168.875 548.25c-23.0625 12.375-50.625-5.625-50.625-33.75v-263.25c0-27.5625 14.0625-52.3125 37.125-64.6875l249.75-135c23.0625-12.375 50.625 6.1875 50.625 34.3125V348.5625c0 27.5625-14.0625 52.3125-37.125 64.6875z m357.1875 196.3125c11.8125 6.1875 17.4375 16.875 16.3125 27 1.125 10.6875-4.5 20.8125-16.3125 27L521.5625 796.3125c-11.25 6.1875-24.75 9-38.25 9-13.5 0-27-2.8125-38.25-9l-254.25-132.1875c-11.8125-6.1875-16.875-16.875-16.3125-27-0.5625-10.6875 4.5-21.375 16.3125-27.5625l254.25-132.1875C456.3125 471.1875 469.8125 468.375 483.3125 468.375c13.5 0 27 2.8125 38.25 9l254.25 132.1875z"  horiz-adv-x="1024" />

    
    <glyph glyph-name="facebook" unicode="&#61853;" d="M960 782.6v-797c0-27.4-22.2-49.4-49.4-49.4H682.2V283h116.4l17.4 135.2h-134v86.4c0 39.2 10.8 65.8 67 65.8h71.6v121c-12.4 1.6-54.8 5.4-104.4 5.4-103.2 0-174-63-174-178.8v-99.8h-116.8v-135.2h116.8V-64H113.4C86.2-64 64-41.8 64-14.6V782.6C64 809.8 86.2 832 113.4 832h797c27.4 0 49.6-22.2 49.6-49.4z"  horiz-adv-x="1024" />

    
    <glyph glyph-name="liebiao1" unicode="&#58897;" d="M801.727-63.004H223.295c-69.189 0-125.284 56.139-125.284 125.383V642.592c0 69.243 56.095 125.382 125.284 125.382h96.962V801.649c0 17.326 14.009 31.345 31.321 31.345s31.321-14.02 31.321-31.345v-33.675h257.223V801.649c0 17.326 14.009 31.345 31.321 31.345s31.321-14.02 31.321-31.345v-33.675h98.962c69.188 0 125.284-56.14 125.284-125.382v-580.213c0.001-69.244-56.095-125.383-125.283-125.383z m62.642 705.596c0 34.622-28.049 62.691-62.643 62.691h-98.962v-32.674c0-17.296-14.009-31.346-31.321-31.346s-31.321 14.05-31.321 31.346v32.674H382.899v-32.674c0-17.296-14.009-31.346-31.321-31.346s-31.321 14.05-31.321 31.346v32.674h-96.962c-34.594 0-62.643-28.07-62.643-62.691v-580.213c0-34.621 28.049-62.691 62.643-62.691h578.432c34.594 0 62.643 28.07 62.643 62.691V642.592zM703.765 162.09H318.258c-17.313 0-31.321 14.02-31.321 31.346s14.009 31.346 31.321 31.346h385.507c17.313 0 31.32-14.02 31.32-31.346s-14.008-31.346-31.32-31.346z m0 158.056H318.258c-17.313 0-31.321 14.02-31.321 31.346s14.009 31.346 31.321 31.346h385.507c17.313 0 31.32-14.02 31.32-31.346s-14.008-31.346-31.32-31.346z m0 161.059H318.258c-17.313 0-31.321 14.02-31.321 31.346s14.009 31.346 31.321 31.346h385.507c17.313 0 31.32-14.02 31.32-31.346s-14.008-31.346-31.32-31.346z"  horiz-adv-x="1024" />

    
    <glyph glyph-name="xianshi_huaban" unicode="&#58966;" d="M238.617899 687.81323a20.599533 20.599533 0 0 1-29.126226-29.126226L263.968872 604.209805c-80.684825-49.00856-145.431907-121.644825-182.536965-211.424124a20.599533 20.599533 0 0 1 0-15.768405C151.876732 206.69260699999995 321.035953 96.622568 512.388482 96.622568a479.307704 479.307704 0 0 1 210.358288 48.809339l63.422257-63.422257a20.589572 20.589572 0 0 1 29.116265 29.126225z m187.945836-246.148483L569.087004 299.131518a102.818366 102.818366 0 0 0-142.523269 142.523268z m85.824747-303.813229c-171.639533 0-323.56607 96.682335-389.478599 247.144591 35.531206 81.09323 96.622568 145.541479 171.838755 188.583346l102.599222-102.658988c-18.029572-24.075953-29.106304-53.620545-29.106304-85.924358 0-79.479533 64.677354-144.166848 144.166849-144.166848 32.303813 0 61.858366 11.076732 85.914397 29.106303l92.877198-92.877198c-54.785992-24.623813-115.070506-39.206848-178.791595-39.206848zM943.315175 392.835486c-70.424903 170.33463-239.584125 280.444514-430.936654 280.444514a484.786304 484.786304 0 0 1-152.185525-24.564047l33.030973-33.021011a445.420078 445.420078 0 0 0 119.164513 16.415875c171.649494 0 323.576031-96.702257 389.528405-247.114708-27.33323-62.426148-70.076265-114.841401-122.282334-155.681868l29.81354-29.813541C867.431595 245.94926099999998 913.999689 306.17400799999996 943.315175 377.027237a20.599533 20.599533 0 0 1 0 15.768405z m0 0M614.4 394.518911l39.047471-39.077355a143.987549 143.987549 0 0 1 3.087938 29.504748c0 79.489494-64.677354 144.166848-144.166849 144.166848a143.987549 143.987549 0 0 1-29.504747-3.087938L521.961089 486.94786a102.429883 102.429883 0 0 0 92.448872-92.428949z m0 0"  horiz-adv-x="1024" />

    
    <glyph glyph-name="wulumuqishigongandashujuguanlipingtai-ico-" unicode="&#59382;" d="M768 43.51999999999998H299.52a97.92 97.92 0 0 0-97.92 97.92v339.2h64v-339.2a33.92 33.92 0 0 1 33.92-33.92H768a33.92 33.92 0 0 1 33.92 33.92v211.2h64v-211.2A97.92 97.92 0 0 0 768 43.51999999999998zM840.32 508.16l-165.76 141.44V563.2h-12.8a337.28 337.28 0 0 1-336.64-325.76 337.28 337.28 0 0 0 307.2 198.4 300.16 300.16 0 0 0 42.88-3.2v-64z"  horiz-adv-x="1024" />

    
    <glyph glyph-name="shixiangyoujiantou-" unicode="&#58919;" d="M701.44 384L322.56 99.413V668.587L701.44 384z"  horiz-adv-x="1024" />

    
    <glyph glyph-name="shixiangzuojiantou-" unicode="&#58920;" d="M322.56 384l378.88 284.587v-569.174L322.56 384z"  horiz-adv-x="1024" />

    
    <glyph glyph-name="jinru_" unicode="&#58991;" d="M867.95703125 779.5078125h-316.40625c-23.73046875 0-39.55078125-15.8203125-39.55078125-39.55078125s15.8203125-39.55078125 39.55078125-39.55078124h276.85546874v-632.8125h-276.85546874c-23.73046875 0-39.55078125-15.8203125-39.55078125-39.55078126s15.8203125-39.55078125 39.55078125-39.55078125h316.40625c23.73046875 0 39.55078125 15.8203125 39.55078125 39.55078125v711.9140625c0 23.73046875-15.8203125 39.55078125-39.55078125 39.55078125zM670.203125 384l-316.40625 316.40625001v-158.20312501h-197.75390625c-23.73046875 0-39.55078125-15.8203125-39.55078125-39.55078125v-237.3046875c0-23.73046875 15.8203125-39.55078125 39.55078125-39.55078125h201.70898438v-158.20312501l312.45117187 316.40625001z"  horiz-adv-x="1024" />

    
    <glyph glyph-name="zhengzhi" unicode="&#58948;" d="M864 800H160c-35.346 0-64-28.654-64-64v-704c0-35.347 28.654-64 64-64h704c35.346 0 64 28.653 64 64V736c0 35.346-28.654 64-64 64z m32-768c0-17.673-14.327-32-32-32H160c-17.673 0-32 14.327-32 32V736c0 17.673 14.327 32 32 32h704c17.673 0 32-14.327 32-32v-704zM270.868 470.221c0.474-0.644 0.984-1.27 1.566-1.852l83.604-83.604-32.327-120.646a16.117 16.117 0 0 1-0.431-2.387c-5.397-14.261-2.366-30.982 9.116-42.465s28.205-14.513 42.466-9.115c0.794 0.089 1.59 0.218 2.386 0.431L512 245.658l134.752-35.075c0.795-0.213 1.592-0.342 2.386-0.431 14.261-5.397 30.984-2.367 42.467 9.115 11.481 11.481 14.512 28.204 9.115 42.464a16.13 16.13 0 0 1-0.431 2.388l-32.327 120.646 83.604 83.604a16.031 16.031 0 0 1 1.567 1.853c11.804 9.651 17.539 25.648 13.337 41.333-4.202 15.684-17.168 26.67-32.217 29.126a16.06 16.06 0 0 1-2.283 0.821l-121.922 32.669-60.191 104.254a16.06 16.06 0 0 1-1.383 1.992C542.206 694.318 528.238 704 512 704c-16.238 0-30.206-9.682-36.473-23.582a16.136 16.136 0 0 1-1.383-1.992l-60.191-104.254-121.922-32.669c-0.796-0.213-1.55-0.5-2.283-0.821-15.049-2.456-28.015-13.442-32.218-29.126-4.203-15.686 1.533-31.683 13.338-41.335z m19.503 32.534a9.998 9.998 0 0 0 8.167 7.297l0.049 0.183a16.033 16.033 0 0 1 1.726 0.357l123.133 32.994c5.717-0.193 11.351 2.688 14.41 7.988l64 110.852c0.298 0.516 0.558 1.042 0.792 1.574h0.189c1.543 3.53 5.063 6 9.163 6 4.1 0 7.618-2.47 9.162-6h0.189c0.234-0.532 0.494-1.059 0.792-1.574l64-110.852c3.06-5.299 8.693-8.181 14.41-7.988l123.134-32.994c0.575-0.154 1.15-0.269 1.726-0.357l0.049-0.183c3.81-0.578 7.105-3.337 8.167-7.297s-0.413-7.998-3.425-10.403l0.049-0.183c-0.453-0.364-0.895-0.751-1.315-1.172l-90.51-90.509c-5.232-5.233-6.065-13.182-2.533-19.3 0.088-0.57 0.203-1.142 0.355-1.712l33.129-123.638c0.154-0.575 0.343-1.132 0.554-1.674l-0.134-0.134c1.404-3.588 0.662-7.823-2.236-10.722-2.899-2.899-7.134-3.641-10.722-2.236l-0.134-0.134a16.306 16.306 0 0 1-1.673 0.554l-142.639 37.129-0.395-1.476-0.396 1.477-142.639-37.129c-0.575-0.154-1.131-0.343-1.673-0.554l-0.133 0.134c-3.588-1.404-7.823-0.663-10.722 2.236s-3.641 7.134-2.236 10.722l-0.134 0.134c0.21 0.543 0.399 1.099 0.553 1.674l33.129 123.638c0.153 0.57 0.268 1.142 0.356 1.711 3.532 6.118 2.699 14.067-2.534 19.301l-90.51 90.509a16.057 16.057 0 0 1-1.316 1.172l0.049 0.183c-3.009 2.404-4.484 6.442-3.423 10.402z m533.342-309.899l-55.426 32c-7.652 4.418-17.438 1.796-21.856-5.856s-1.796-17.438 5.856-21.856l41.327-23.86-48.492-75.54C718.021 104.42 615.013 128 512 128s-206.021-23.58-233.122-30.257l-48.493 75.54 41.328 23.86c7.652 4.418 10.274 14.204 5.856 21.856-4.418 7.652-14.204 10.274-21.856 5.856l-55.426-32a15.929 15.929 0 0 1-5.667-5.535c-3.193-4.89-3.597-11.349-0.477-16.752l63-98.139a15.92 15.92 0 0 1 8.15-6.942 15.921 15.921 0 0 1 6.707-1.488s120 32 240 32 240-32 240-32c2.398 0 4.666 0.543 6.708 1.488a15.933 15.933 0 0 1 8.148 6.942l63 98.139c3.119 5.403 2.716 11.861-0.478 16.751a15.895 15.895 0 0 1-5.665 5.537z"  horiz-adv-x="1024" />

    
    <glyph glyph-name="suanfaguanli-" unicode="&#59047;" d="M915.3125 713.0625H108.6875C98.140625 713.0625 90.125 705.046875 90.125 694.921875v-495.28125c0-10.125 8.015625-18.5625 18.5625-18.5625h807.046875c10.125 0 18.5625 8.015625 18.5625 18.5625V694.921875c-0.421875 10.125-8.4375 18.140625-18.984375 18.140625zM374.890625 353.203125c-5.0625-5.0625-12.234375-7.59375-18.984375-7.59375s-13.5 2.53125-18.984375 7.59375L257.609375 432.515625c-10.125 10.125-10.546875 27 0 37.546875l79.3125 79.3125c10.125 10.125 27 10.125 37.546875 0 10.546875-10.546875 10.546875-27.421875 0-37.546875L314.140625 451.5l60.75-60.75c10.125-10.125 10.125-27 0-37.546875z m199.125 200.390625l-76.78125-211.359375c-2.53125-6.75-7.171875-11.8125-13.921875-15.1875-3.375-1.6875-7.171875-2.53125-11.390625-2.53125-2.953125 0-6.328125 0.421875-9.28125 1.6875-6.75 2.53125-11.8125 7.171875-15.1875 13.921875-2.953125 6.328125-3.375 13.5-0.84375 20.25l76.78125 211.359375c5.0625 13.921875 20.25 21.09375 34.171875 16.03125 6.75-2.53125 11.8125-7.171875 15.1875-13.921875 3.375-6.328125 3.796875-13.5 1.265625-20.25z m185.203125-121.078125l-79.3125-79.3125c-5.0625-5.0625-11.8125-7.59375-18.984375-7.59375-6.75 0-13.5 2.53125-18.984375 7.59375-10.546875 10.546875-10.546875 27.421875 0 37.546875L702.6875 451.5l-60.75 60.75c-10.125 10.125-10.546875 27 0 37.546875s27.421875 10.546875 37.546875 0l79.3125-79.3125c10.546875-10.546875 10.546875-27.421875 0.421875-37.96875zM787.0625 108.515625H236.9375c-14.765625 0-27-11.8125-27-27s11.8125-27 27-27h550.125c14.765625 0 27 11.8125 27 27s-12.234375 27-27 27z"  horiz-adv-x="1024" />

    
    <glyph glyph-name="exchange" unicode="&#59074;" d="M57.856 468.992h908.8c31.744 0 57.856 26.112 57.856 57.856 0 17.408-7.68 33.28-20.992 44.544-3.072 4.096-7.168 7.68-11.264 10.752l-339.456 238.08c-26.112 18.432-61.952 12.288-80.384-13.824-18.432-26.112-11.776-61.952 14.336-80.384l201.216-141.312H57.856C26.112 584.192 0 558.08 0 526.336s26.112-57.344 57.856-57.344zM966.144 299.008H57.856c-31.744 0-57.856-26.112-57.856-57.856 0-17.408 7.68-33.28 20.992-44.544 3.584-4.096 7.168-7.68 11.264-10.752l339.456-238.08c9.728-6.656 20.992-10.24 33.28-10.24 18.944 0 36.352 9.216 47.104 24.576 8.704 12.8 12.288 27.648 9.728 43.008s-11.264 28.16-23.552 37.376l-201.216 141.312h729.6c31.744 0 57.856 26.112 57.856 57.856-0.512 31.744-26.624 57.344-58.368 57.344z"  horiz-adv-x="1024" />

    
    <glyph glyph-name="zhidingtubiao" unicode="&#59097;" d="M615.51757813 24.206542969999987H408.48242187c-31.56767578 0-57.19921875 25.63242187-57.19921874 57.20009766v198.13183593c0 0.26982422-0.36035156 0.62929687-0.63017579 0.62929688H242.9984375c-27.52119141 0-37.59345703 16.18857422-40.56152344 23.203125-3.05859375 7.01542969-8.09472656 25.36259766 10.70244141 45.50888672l258.47929687 277.54541015c10.43261719 11.24208984 25.09277344 17.71787109 40.38134766 17.7178711 15.19892578 0 29.94873047-6.47578125 40.38134766-17.7178711l258.47929687-277.54541015c18.70664062-20.14628906 13.67050781-38.49345703 10.70244141-45.50800782-3.05771484-7.01542969-13.04033203-23.20400391-40.56152344-23.2040039H673.34697266c-0.26982422 0-0.62929687-0.36035156-0.62929688-0.62929688v-198.04130859c0-31.56855469-25.63242187-57.20009766-57.20009765-57.290625zM279.06347656 336.82910156h71.58955078c31.56767578 0 57.19921875-25.63242187 57.19921875-57.20009765V81.5859375c0-0.26982422 0.36035156-0.62929687 0.63017579-0.62929687h206.94550781c0.26982422 0 0.62929687 0.35947266 0.62929687 0.62929687V279.53847656000005c0 31.56767578 25.63242187 57.19921875 57.19921875 57.19921875h71.59042969l-232.93652344 250.115625L279.06347656 336.82822266000005z m511.11210938 350.30478516H233.82441406c-15.64892578-0.09052734-28.32978516 12.50068359-28.41943359 28.15048828s12.50068359 28.32978516 28.14960937 28.41943359H790.0859375c15.64892578 0 28.33066406-12.68085937 28.33066406-28.32978515 0-15.55927734-12.68173828-28.24013672-28.24013672-28.24013672z"  horiz-adv-x="1024" />

    
    <glyph glyph-name="jiqunguanli" unicode="&#58965;" d="M542.52001928 293.29687475000003c0 33.35449244 27.48779297 60.24902369 60.3149414 60.24902369h244.55566432c33.35449244 0 60.24902369-27.35595678 60.24902369-60.24902369v-244.48974584a60.51269531 60.51269531 0 0 0-60.24902369-60.31494141h-244.55566432a60.6445315 60.6445315 0 0 0-60.24902293 60.24902369l-0.06591847 244.55566356z m0 425.96191406c0 33.28857397 27.48779297 60.24902369 60.3149414 60.24902369h244.55566432c33.35449244 0 60.24902369-27.42187525 60.24902369-60.24902369v-244.55566356a60.51269531 60.51269531 0 0 0-60.24902369-60.24902369h-244.55566432a60.6445315 60.6445315 0 0 0-60.24902293 60.24902369L542.52001928 719.2587888099999zM116.4921875 293.29687475000003c0 33.35449244 27.42187525 60.24902369 60.31494141 60.24902369h244.55566431c33.35449244 0 60.24902369-27.35595678 60.24902293-60.24902369v-244.48974584a60.51269531 60.51269531 0 0 0-60.24902293-60.31494141H176.80712891a60.6445315 60.6445315 0 0 0-60.24902369 60.24902369L116.4921875 293.29687475000003zM116.4921875 719.2587888099999C116.4921875 752.54736353 143.91406275 779.5078125 176.80712891 779.5078125h244.55566431c33.35449244 0 60.24902369-27.42187525 60.24902293-60.24902369v-244.55566356a60.51269531 60.51269531 0 0 0-60.24902293-60.24902369H176.80712891a60.6445315 60.6445315 0 0 0-60.24902369 60.24902369L116.4921875 719.2587888099999z"  horiz-adv-x="1024" />

    
    <glyph glyph-name="bianji" unicode="&#58895;" d="M174.5 24a22.5 22.5 0 1 0 0 45h678.015a22.5 22.5 0 1 0 0-45H174.5zM726.425 727.215a22.5 22.5 0 0 1-31.815 0l-394.02-394.02a67.5 67.5 0 0 1-18.45-34.38l-18.81-93.24a22.5 22.5 0 0 1 26.55-26.505l92.97 19.08a67.5 67.5 0 0 1 34.2 18.405l394.11 394.11a22.5 22.5 0 0 1 0 31.815l-84.735 84.735z m31.815 31.815l84.735-84.69a67.5 67.5 0 0 0 0-95.49l-394.155-394.11a112.5 112.5 0 0 0-56.925-30.69l-92.97-19.035a67.5 67.5 0 0 0-79.74 79.47l18.855 93.24a112.5 112.5 0 0 0 30.735 57.285l394.02 394.02a67.5 67.5 0 0 0 95.445 0zM596.6 661.065l148.365-148.365-31.815-31.815-148.365 148.32 31.86 31.86z"  horiz-adv-x="1024" />

    
    </font>
</defs>
</svg>
